<svg id="SvgjsSvg1011" xmlns="http://www.w3.org/2000/svg" version="1.1" xmlns:xlink="http://www.w3.org/1999/xlink" xmlns:svgjs="http://svgjs.com/svgjs" width="52" height="52" viewBox="0 0 52 52"><title>Shape 36</title><desc>Created with Avocode.</desc><defs id="SvgjsDefs1012"></defs><path id="SvgjsPath1013" d="M1439 1105C1453.35 1105 1465 1093.35 1465 1079C1465 1064.65 1453.35 1053 1439 1053C1424.65 1053 1413 1064.65 1413 1079C1413 1093.35 1424.65 1105 1439 1105ZM1439 1054.61C1452.42 1054.61 1463.39 1065.53 1463.39 1079C1463.39 1092.47 1452.47 1103.39 1439 1103.39C1425.53 1103.39 1414.61 1092.47 1414.61 1079C1414.61 1065.53 1425.58 1054.61 1439 1054.61ZM1431.36 1077.18C1431.1999999999998 1077.65 1431.36 1078.1200000000001 1431.77 1078.38L1435.2 1080.8700000000001L1433.9 1084.93C1433.75 1085.4 1433.9 1085.8600000000001 1434.3200000000002 1086.1200000000001C1434.68 1086.38 1435.2000000000003 1086.38 1435.6200000000001 1086.1200000000001L1439.0500000000002 1083.63L1442.4800000000002 1086.1200000000001C1442.6900000000003 1086.2800000000002 1442.9000000000003 1086.3300000000002 1443.1100000000004 1086.3300000000002C1443.3200000000004 1086.3300000000002 1443.5800000000004 1086.2800000000002 1443.7300000000002 1086.1200000000001C1444.1000000000001 1085.8600000000001 1444.2500000000002 1085.3400000000001 1444.1000000000001 1084.93L1442.8000000000002 1080.8700000000001L1446.2300000000002 1078.38C1446.5900000000001 1078.1200000000001 1446.7500000000002 1077.6000000000001 1446.5900000000001 1077.18C1446.44 1076.71 1446.0200000000002 1076.45 1445.5500000000002 1076.45H1441.2900000000002L1440.0400000000002 1072.4C1439.88 1071.93 1439.4700000000003 1071.67 1439.0000000000002 1071.67C1438.5300000000002 1071.67 1438.1200000000001 1071.98 1437.9600000000003 1072.4L1436.6600000000003 1076.45H1432.4000000000003C1431.9300000000003 1076.45 1431.5100000000002 1076.76 1431.3600000000004 1077.18ZM1437.02 1078.06C1437.49 1078.06 1437.91 1077.75 1438.06 1077.34L1439 1074.48L1439.94 1077.34C1440.0900000000001 1077.8 1440.51 1078.06 1440.98 1078.06H1443.94L1441.55 1079.78C1441.18 1080.04 1441.03 1080.56 1441.18 1080.98L1442.1200000000001 1083.78L1439.6200000000001 1082.12C1439.42 1081.9599999999998 1439.21 1081.9099999999999 1439.0000000000002 1081.9099999999999C1438.7900000000002 1081.9099999999999 1438.5300000000002 1081.9599999999998 1438.3800000000003 1082.12L1435.9800000000002 1083.8899999999999L1436.9200000000003 1081.08C1437.0800000000004 1080.61 1436.9200000000003 1080.1399999999999 1436.5000000000002 1079.8799999999999L1434.1100000000001 1078.1699999999998H1437.0200000000002ZM1418.93 1084.3C1419.8600000000001 1085.1399999999999 1421.1100000000001 1085.55 1422.3100000000002 1085.55C1422.8300000000002 1085.55 1423.4 1085.45 1423.92 1085.29C1425.69 1085.55 1427.51 1084.8799999999999 1428.65 1083.47C1429.8500000000001 1082.07 1430.21 1080.09 1429.5900000000001 1078.38C1429.4800000000002 1078.1200000000001 1429.2800000000002 1077.91 1428.96 1077.8600000000001C1427.14 1077.5400000000002 1425.27 1078.22 1424.08 1079.6200000000001C1423.87 1079.88 1423.6599999999999 1080.14 1423.5 1080.46C1423.3 1080.2 1423.09 1079.94 1422.83 1079.73C1421.4199999999998 1078.53 1419.4499999999998 1078.17 1417.73 1078.79C1417.47 1078.8999999999999 1417.26 1079.1599999999999 1417.21 1079.42C1416.8500000000001 1081.24 1417.52 1083.1100000000001 1418.93 1084.3000000000002ZM1424.49 1082.64C1424.54 1081.91 1424.86 1081.24 1425.32 1080.66C1426.05 1079.8300000000002 1427.09 1079.3600000000001 1428.1799999999998 1079.42C1428.3899999999999 1080.51 1428.1299999999999 1081.6000000000001 1427.3999999999999 1082.43C1426.6799999999998 1083.26 1425.58 1083.73 1424.4899999999998 1083.68C1424.3899999999999 1083.47 1424.1799999999998 1083.3700000000001 1423.9699999999998 1083.3200000000002C1424.2299999999998 1083.2100000000003 1424.4399999999998 1082.9500000000003 1424.4899999999998 1082.64ZM1421.74 1080.92C1422.31 1081.39 1422.67 1082.02 1422.88 1082.74C1422.98 1083.06 1423.24 1083.26 1423.5 1083.32C1423.3 1083.4199999999998 1423.14 1083.58 1423.04 1083.78C1421.94 1083.99 1420.8 1083.73 1419.97 1083C1419.14 1082.28 1418.67 1081.24 1418.72 1080.14C1419.76 1079.94 1420.9 1080.25 1421.74 1080.92ZM1423.04 1077.23C1423.56 1077.44 1424.1299999999999 1077.54 1424.7 1077.54C1425.64 1077.54 1426.52 1077.28 1427.3 1076.71C1428.55 1075.78 1429.28 1074.27 1429.12 1072.71C1429.07 1072.4 1428.9099999999999 1072.14 1428.6499999999999 1072.03C1427.1999999999998 1071.41 1425.53 1071.56 1424.28 1072.5C1424.1299999999999 1072.6 1423.92 1072.76 1423.76 1072.92C1423.66 1072.71 1423.56 1072.5500000000002 1423.45 1072.4C1422.52 1071.15 1421.01 1070.42 1419.45 1070.5800000000002C1419.14 1070.63 1418.88 1070.7800000000002 1418.77 1071.0400000000002C1418.15 1072.5000000000002 1418.3 1074.16 1419.24 1075.41C1420.07 1076.6100000000001 1421.53 1077.28 1423.04 1077.23ZM1424.18 1075.15C1424.39 1074.63 1424.7 1074.16 1425.17 1073.8000000000002C1425.8400000000001 1073.3300000000002 1426.68 1073.1800000000003 1427.46 1073.3300000000002C1427.4 1074.1100000000001 1426.94 1074.89 1426.31 1075.3600000000001C1425.6399999999999 1075.8300000000002 1424.75 1075.98 1423.97 1075.7800000000002L1423.82 1075.5700000000002C1423.97 1075.5200000000002 1424.1299999999999 1075.3600000000001 1424.1799999999998 1075.15ZM1420.07 1072.14C1420.8999999999999 1072.19 1421.6299999999999 1072.6000000000001 1422.1 1073.2800000000002C1422.4099999999999 1073.7500000000002 1422.62 1074.2700000000002 1422.62 1074.8400000000001C1422.62 1075.0500000000002 1422.6699999999998 1075.2600000000002 1422.83 1075.3600000000001L1422.62 1075.5200000000002C1421.79 1075.4600000000003 1421.01 1075.0500000000002 1420.54 1074.3700000000001C1420.02 1073.8000000000002 1419.86 1072.92 1420.07 1072.14ZM1424.6 1069.85C1425.4299999999998 1070.6299999999999 1426.52 1071.04 1427.6599999999999 1071.04C1428.0299999999997 1071.04 1428.3899999999999 1070.99 1428.7599999999998 1070.8899999999999C1430.2599999999998 1070.52 1431.4599999999998 1069.33 1431.9299999999998 1067.82C1431.9799999999998 1067.56 1431.9299999999998 1067.25 1431.7199999999998 1067.04C1430.6299999999999 1065.95 1429.0199999999998 1065.48 1427.5099999999998 1065.84C1427.2999999999997 1065.8999999999999 1427.0899999999997 1065.9499999999998 1426.8799999999997 1066.05C1426.8799999999997 1065.84 1426.8299999999997 1065.6399999999999 1426.7799999999997 1065.43C1426.4199999999998 1063.92 1425.2199999999998 1062.72 1423.7099999999998 1062.26C1423.4499999999998 1062.15 1423.1399999999999 1062.26 1422.9299999999998 1062.46C1421.84 1063.56 1421.37 1065.17 1421.7399999999998 1066.68C1422.0499999999997 1068.24 1423.1899999999998 1069.38 1424.5999999999997 1069.8500000000001ZM1426.47 1068.34C1426.83 1067.9199999999998 1427.3 1067.61 1427.8700000000001 1067.4599999999998C1428.65 1067.2499999999998 1429.48 1067.3999999999999 1430.16 1067.87C1429.8000000000002 1068.6 1429.17 1069.12 1428.3400000000001 1069.33C1427.5100000000002 1069.54 1426.68 1069.3799999999999 1426.0000000000002 1068.86L1425.9500000000003 1068.6C1426.1000000000004 1068.6 1426.3100000000002 1068.5 1426.4700000000003 1068.34ZM1423.71 1064.08C1424.44 1064.4399999999998 1424.96 1065.12 1425.17 1065.8999999999999C1425.27 1066.4699999999998 1425.27 1067.04 1425.0600000000002 1067.56C1425.0100000000002 1067.77 1425.0100000000002 1067.98 1425.0600000000002 1068.1299999999999L1424.8000000000002 1068.2399999999998C1424.0200000000002 1067.87 1423.5000000000002 1067.1999999999998 1423.3000000000002 1066.4199999999998C1423.0900000000001 1065.58 1423.2400000000002 1064.7499999999998 1423.7100000000003 1064.08ZM1427.46 1065.32C1427.92 1065.53 1428.39 1065.58 1428.91 1065.58C1429.74 1065.58 1430.5800000000002 1065.32 1431.25 1064.8C1432.29 1063.97 1432.86 1062.62 1432.71 1061.32C1432.66 1061.01 1432.5 1060.8 1432.19 1060.6399999999999C1430.94 1060.12 1429.48 1060.33 1428.44 1061.1599999999999C1427.3500000000001 1061.9999999999998 1426.8300000000002 1063.35 1426.99 1064.6499999999999C1426.99 1064.9599999999998 1427.2 1065.2199999999998 1427.46 1065.32ZM1429.43 1062.46C1429.9 1062.1000000000001 1430.52 1061.94 1431.1000000000001 1062.05C1431.0400000000002 1062.62 1430.7300000000002 1063.19 1430.2600000000002 1063.56C1429.8000000000002 1063.9199999999998 1429.1700000000003 1064.08 1428.6000000000001 1063.97C1428.65 1063.3500000000001 1428.91 1062.83 1429.43 1062.46ZM1429.64 1089.66C1430.3700000000001 1088.3100000000002 1430.3200000000002 1086.5900000000001 1429.5400000000002 1085.24C1429.38 1084.98 1429.1200000000001 1084.82 1428.8100000000002 1084.88C1427.2500000000002 1084.93 1425.8400000000001 1085.8100000000002 1425.0600000000002 1087.22C1424.9600000000003 1087.42 1424.8600000000001 1087.58 1424.8000000000002 1087.79C1424.65 1087.68 1424.4400000000003 1087.53 1424.2800000000002 1087.42C1422.9300000000003 1086.7 1421.2200000000003 1086.75 1419.9200000000003 1087.53C1419.6600000000003 1087.68 1419.5000000000002 1087.94 1419.5500000000004 1088.26C1419.6000000000004 1089.82 1420.4900000000005 1091.27 1421.8900000000003 1092C1422.5700000000004 1092.36 1423.2400000000002 1092.52 1423.9700000000003 1092.52C1424.7500000000002 1092.52 1425.4800000000002 1092.31 1426.1600000000003 1091.95C1427.5600000000004 1091.8400000000001 1428.9100000000003 1091.01 1429.6400000000003 1089.66ZM1424.96 1090.7C1424.18 1091.01 1423.3500000000001 1091.01 1422.57 1090.6000000000001C1421.84 1090.2300000000002 1421.32 1089.5000000000002 1421.1599999999999 1088.72C1421.9399999999998 1088.41 1422.7799999999997 1088.46 1423.4999999999998 1088.88C1424.0199999999998 1089.14 1424.3899999999999 1089.5600000000002 1424.6499999999999 1090.0800000000002C1424.7499999999998 1090.2800000000002 1424.9099999999999 1090.39 1425.06 1090.44ZM1426.47 1088C1426.83 1087.27 1427.56 1086.75 1428.34 1086.59C1428.6 1087.32 1428.55 1088.1999999999998 1428.1799999999998 1088.9299999999998C1427.82 1089.6599999999999 1427.09 1090.1799999999998 1426.2599999999998 1090.34L1426.0499999999997 1090.1799999999998C1426.1599999999996 1090.0199999999998 1426.2099999999998 1089.82 1426.2099999999998 1089.61C1426.1 1089.04 1426.2099999999998 1088.4599999999998 1426.4699999999998 1088ZM1431.41 1089.82C1431.15 1089.6599999999999 1430.8400000000001 1089.6599999999999 1430.5800000000002 1089.82C1429.38 1090.54 1428.65 1091.8999999999999 1428.65 1093.3C1428.65 1093.46 1428.65 1093.61 1428.7 1093.77C1428.55 1093.77 1428.39 1093.77 1428.24 1093.77C1426.83 1093.82 1425.53 1094.6 1424.86 1095.8C1424.6999999999998 1096.06 1424.6999999999998 1096.37 1424.86 1096.6299999999999C1425.58 1097.82 1426.8799999999999 1098.4999999999998 1428.24 1098.4999999999998H1428.34C1429.6899999999998 1098.4499999999998 1430.9399999999998 1097.7699999999998 1431.6699999999998 1096.5799999999997C1432.81 1095.7999999999997 1433.4399999999998 1094.5499999999997 1433.4399999999998 1093.1999999999996C1433.4399999999998 1091.7899999999995 1432.6599999999999 1090.4899999999996 1431.4099999999999 1089.8199999999995ZM1428.34 1097.04H1428.29C1427.6599999999999 1097.04 1427.04 1096.68 1426.57 1096.21C1426.99 1095.74 1427.61 1095.38 1428.29 1095.38C1428.76 1095.38 1429.22 1095.48 1429.6399999999999 1095.74C1429.8 1095.85 1429.9499999999998 1095.9 1430.11 1095.9V1096.0600000000002C1429.6899999999998 1096.63 1429.07 1097.0400000000002 1428.34 1097.0400000000002ZM1431.04 1095.02H1430.94C1430.94 1094.86 1430.89 1094.7 1430.78 1094.55C1430.52 1094.1299999999999 1430.37 1093.72 1430.32 1093.2C1430.32 1092.52 1430.58 1091.9 1431.04 1091.43C1431.56 1091.8400000000001 1431.82 1092.47 1431.82 1093.14C1431.82 1093.92 1431.56 1094.6000000000001 1431.04 1095.0200000000002ZM1455.22 1080.14C1454.96 1080.3500000000001 1454.7 1080.5600000000002 1454.5 1080.8200000000002C1454.34 1080.5100000000002 1454.18 1080.2500000000002 1453.98 1079.9900000000002C1452.83 1078.5300000000002 1451.01 1077.7500000000002 1449.19 1077.9600000000003C1448.88 1078.0100000000002 1448.67 1078.1700000000003 1448.52 1078.4800000000002C1447.84 1080.2000000000003 1448.1 1082.1700000000003 1449.19 1083.6300000000003C1450.28 1085.0300000000004 1452.05 1085.8100000000004 1453.8200000000002 1085.6600000000003C1454.39 1085.8600000000004 1455.0200000000002 1085.9700000000003 1455.64 1085.9700000000003C1456.7800000000002 1085.9700000000003 1457.88 1085.6000000000004 1458.8100000000002 1084.8800000000003C1460.2700000000002 1083.7300000000002 1461.0500000000002 1081.9100000000003 1460.8400000000001 1080.0900000000004C1460.7900000000002 1079.7800000000004 1460.63 1079.5700000000004 1460.3200000000002 1079.4200000000003C1458.7100000000003 1078.7900000000002 1456.7300000000002 1079.0500000000004 1455.2200000000003 1080.1400000000003ZM1453.35 1084.04C1452.26 1084.04 1451.1699999999998 1083.52 1450.49 1082.6399999999999C1449.82 1081.7599999999998 1449.61 1080.61 1449.8700000000001 1079.57C1450.96 1079.57 1452.0000000000002 1080.09 1452.68 1080.98C1453.14 1081.55 1453.3500000000001 1082.28 1453.4 1083C1453.4 1083.32 1453.6100000000001 1083.58 1453.8700000000001 1083.73C1453.66 1083.73 1453.5100000000002 1083.89 1453.3500000000001 1084.04ZM1459.33 1080.82C1459.33 1081.9099999999999 1458.81 1082.95 1457.9299999999998 1083.6299999999999C1457.0399999999997 1084.3 1455.8999999999999 1084.51 1454.81 1084.2499999999998C1454.76 1084.0399999999997 1454.6 1083.8899999999999 1454.3899999999999 1083.7799999999997C1454.6999999999998 1083.7299999999998 1454.9599999999998 1083.5199999999998 1455.07 1083.2099999999998C1455.28 1082.4799999999998 1455.74 1081.9099999999999 1456.32 1081.4399999999998C1457.1 1080.7699999999998 1458.24 1080.5599999999997 1459.33 1080.82ZM1454.96 1072.76C1454.8600000000001 1072.92 1454.7 1073.12 1454.6000000000001 1073.28C1454.44 1073.12 1454.2900000000002 1072.97 1454.13 1072.86C1452.94 1071.8799999999999 1451.2700000000002 1071.62 1449.7600000000002 1072.1899999999998C1449.5000000000002 1072.2899999999997 1449.3000000000002 1072.5499999999997 1449.2400000000002 1072.8099999999997C1449.0400000000002 1074.3699999999997 1449.6600000000003 1075.9299999999996 1450.8600000000001 1076.9199999999996C1451.64 1077.5399999999995 1452.6200000000001 1077.8599999999997 1453.6100000000001 1077.8599999999997C1454.0800000000002 1077.8599999999997 1454.6000000000001 1077.7499999999998 1455.0700000000002 1077.5999999999997C1456.5800000000002 1077.7499999999998 1458.0300000000002 1077.1299999999997 1458.9700000000003 1075.9299999999996C1459.9600000000003 1074.7399999999996 1460.2200000000003 1073.0699999999997 1459.6400000000003 1071.5599999999997C1459.5400000000004 1071.2999999999997 1459.2800000000004 1071.0999999999997 1459.0200000000004 1071.0399999999997C1457.5100000000004 1070.9399999999998 1455.9500000000005 1071.5599999999997 1454.9600000000005 1072.7599999999998ZM1454.24 1076.19C1453.4 1076.3500000000001 1452.57 1076.19 1451.9 1075.67C1451.27 1075.15 1450.91 1074.3700000000001 1450.8600000000001 1073.5900000000001C1451.64 1073.44 1452.47 1073.64 1453.0900000000001 1074.16C1453.5100000000002 1074.53 1453.8700000000001 1075 1454.0300000000002 1075.5700000000002C1454.0800000000002 1075.7800000000002 1454.2400000000002 1075.93 1454.39 1076.0400000000002ZM1455.64 1075.36C1455.69 1074.79 1455.8500000000001 1074.27 1456.21 1073.8C1456.73 1073.18 1457.51 1072.76 1458.29 1072.76C1458.45 1073.54 1458.24 1074.37 1457.72 1075C1457.2 1075.67 1456.42 1076.04 1455.59 1076.04L1455.3799999999999 1075.8799999999999C1455.54 1075.7199999999998 1455.6399999999999 1075.57 1455.6399999999999 1075.36ZM1451.22 1066.16C1449.71 1065.69 1448.1000000000001 1066.0500000000002 1446.96 1067.14C1446.75 1067.3500000000001 1446.64 1067.66 1446.7 1067.92C1447.06 1069.43 1448.2 1070.68 1449.71 1071.15C1450.13 1071.25 1450.54 1071.3600000000001 1451.01 1071.3600000000001C1452.05 1071.3600000000001 1453.09 1070.9900000000002 1453.87 1070.3200000000002C1455.33 1069.9 1456.4699999999998 1068.8100000000002 1456.9399999999998 1067.3500000000001C1457.4099999999999 1065.8400000000001 1457.0399999999997 1064.2300000000002 1455.9499999999998 1063.0900000000001C1455.7399999999998 1062.88 1455.4299999999998 1062.7800000000002 1455.1699999999998 1062.8300000000002C1453.6599999999999 1063.19 1452.4199999999998 1064.3400000000001 1451.9499999999998 1065.8400000000001C1451.8999999999999 1066.0500000000002 1451.84 1066.2600000000002 1451.7899999999997 1066.4700000000003C1451.5799999999997 1066.2600000000002 1451.3799999999997 1066.2100000000003 1451.2199999999998 1066.1600000000003ZM1453.51 1066.21C1453.72 1065.43 1454.34 1064.8 1455.07 1064.49C1455.48 1065.17 1455.59 1066 1455.3799999999999 1066.78C1455.1699999999998 1067.56 1454.55 1068.24 1453.77 1068.55L1453.51 1068.44C1453.56 1068.29 1453.61 1068.0800000000002 1453.56 1067.8700000000001C1453.35 1067.3500000000001 1453.35 1066.7800000000002 1453.51 1066.21ZM1452.1 1068.65C1452.26 1068.8100000000002 1452.4199999999998 1068.91 1452.62 1068.96L1452.52 1069.22C1451.84 1069.69 1450.96 1069.8 1450.18 1069.59C1449.4 1069.33 1448.78 1068.76 1448.41 1068.03C1449.0900000000001 1067.61 1449.92 1067.46 1450.7 1067.72C1451.27 1067.8700000000001 1451.74 1068.18 1452.1000000000001 1068.65ZM1447.48 1064.86C1448.15 1065.4299999999998 1449.04 1065.74 1449.97 1065.74C1450.39 1065.74 1450.8 1065.69 1451.22 1065.53C1451.48 1065.43 1451.69 1065.17 1451.74 1064.91C1451.95 1063.5600000000002 1451.48 1062.2 1450.44 1061.3200000000002C1449.4 1060.44 1448 1060.18 1446.7 1060.64C1446.44 1060.75 1446.23 1060.96 1446.18 1061.2700000000002C1445.97 1062.6200000000001 1446.44 1063.9700000000003 1447.48 1064.8600000000001ZM1449.4 1062.57C1449.8700000000001 1062.98 1450.13 1063.5 1450.18 1064.1299999999999C1449.6100000000001 1064.1799999999998 1448.98 1064.02 1448.52 1063.61C1448.05 1063.1899999999998 1447.79 1062.6699999999998 1447.74 1062.05C1448.31 1062 1448.93 1062.2 1449.4 1062.57ZM1457.77 1088.15C1456.47 1087.27 1454.81 1087.16 1453.4 1087.8400000000001C1453.2 1087.94 1453.0400000000002 1088.0500000000002 1452.8300000000002 1088.15C1452.7800000000002 1087.94 1452.68 1087.74 1452.6200000000001 1087.5800000000002C1451.95 1086.18 1450.5400000000002 1085.19 1449.0400000000002 1085.0800000000002C1448.7200000000003 1085.0800000000002 1448.4600000000003 1085.19 1448.3100000000002 1085.45C1447.42 1086.75 1447.3200000000002 1088.41 1448.0000000000002 1089.82C1448.6200000000001 1091.1699999999998 1449.9700000000003 1092.1 1451.4300000000003 1092.31C1452.1600000000003 1092.78 1452.9400000000003 1092.99 1453.7700000000002 1092.99C1454.4400000000003 1092.99 1455.0700000000002 1092.83 1455.6900000000003 1092.57C1457.1000000000004 1091.8999999999999 1458.0800000000004 1090.54 1458.1900000000003 1088.98C1458.1900000000003 1088.6200000000001 1458.0300000000002 1088.31 1457.7700000000002 1088.15ZM1451.27 1090.6C1450.44 1090.3899999999999 1449.82 1089.87 1449.4 1089.09C1449.0400000000002 1088.36 1449.0400000000002 1087.48 1449.3500000000001 1086.75C1450.13 1086.96 1450.8000000000002 1087.53 1451.1200000000001 1088.26C1451.3200000000002 1088.78 1451.43 1089.35 1451.3200000000002 1089.92C1451.2700000000002 1090.13 1451.3200000000002 1090.3400000000001 1451.43 1090.49ZM1454.96 1091.06C1454.18 1091.4299999999998 1453.3 1091.4299999999998 1452.57 1091.06L1452.47 1090.8C1452.68 1090.75 1452.83 1090.6 1452.94 1090.44C1453.25 1089.92 1453.66 1089.56 1454.13 1089.3C1454.8600000000001 1088.93 1455.74 1088.93 1456.47 1089.24C1456.21 1090.02 1455.69 1090.7 1454.96 1091.06ZM1449.14 1093.92C1448.98 1093.92 1448.8300000000002 1093.92 1448.67 1093.92C1448.72 1093.77 1448.72 1093.6100000000001 1448.72 1093.46C1448.83 1092.05 1448.15 1090.7 1447.01 1089.8700000000001C1446.75 1089.71 1446.44 1089.66 1446.18 1089.8200000000002C1444.93 1090.44 1444.04 1091.69 1443.94 1093.0900000000001C1443.8400000000001 1094.44 1444.46 1095.7400000000002 1445.55 1096.5800000000002C1446.23 1097.7700000000002 1447.4199999999998 1098.5500000000002 1448.78 1098.66H1449.04C1450.34 1098.66 1451.58 1098.03 1452.31 1096.94C1452.47 1096.68 1452.52 1096.3700000000001 1452.36 1096.1100000000001C1451.79 1094.8600000000001 1450.54 1094.0300000000002 1449.1399999999999 1093.92ZM1446.59 1094.65C1446.49 1094.76 1446.4399999999998 1094.91 1446.4399999999998 1095.0700000000002H1446.33C1445.81 1094.6000000000001 1445.55 1093.92 1445.6 1093.2000000000003C1445.6599999999999 1092.5200000000002 1445.9699999999998 1091.9500000000003 1446.49 1091.5300000000002C1446.9 1092.0000000000002 1447.16 1092.6200000000001 1447.11 1093.3000000000002C1447.06 1093.8200000000002 1446.8999999999999 1094.2900000000002 1446.59 1094.65ZM1448.93 1097.04C1448.26 1096.99 1447.5800000000002 1096.6299999999999 1447.16 1096.11V1096C1447.3200000000002 1096 1447.48 1095.95 1447.63 1095.9C1448.0500000000002 1095.64 1448.5200000000002 1095.5400000000002 1448.98 1095.5900000000001C1449.66 1095.64 1450.28 1095.95 1450.65 1096.4700000000003C1450.23 1096.8400000000001 1449.5600000000002 1097.1000000000004 1448.93 1097.0400000000002Z " fill="#0084ff" fill-opacity="1" transform="matrix(1,0,0,1,-1413,-1053)"></path></svg>