<svg id="SvgjsSvg1000" xmlns="http://www.w3.org/2000/svg" version="1.1" xmlns:xlink="http://www.w3.org/1999/xlink" xmlns:svgjs="http://svgjs.com/svgjs" width="40" height="45" viewBox="0 0 40 45"><title>Shape 35</title><desc>Created with Avocode.</desc><defs id="SvgjsDefs1001"></defs><path id="SvgjsPath1007" d="M481.471 1056.99C480.201 1056.99 478.931 1057.24 477.96 1058.02C477.133 1058.69 476.729 1059.81 476.589 1061.25H473.505C472.778 1061.25 472.146 1061.62 471.664 1062.11C471.181 1062.59 470.80699999999996 1063.2199999999998 470.80699999999996 1063.9499999999998V1069.7099999999998C470.806 1070.0699999999997 471.08799999999997 1070.3799999999999 471.44899999999996 1070.3999999999999H472.17799999999994C471.3689999999999 1071.0199999999998 470.84999999999997 1071.9699999999998 470.84999999999997 1073.06C470.84999999999997 1074.73 472.03999999999996 1076.09 473.63399999999996 1076.37C473.80999999999995 1079.75 475.328 1082.61 477.78799999999995 1084.32C477.79099999999994 1084.3999999999999 477.80499999999995 1084.47 477.83099999999996 1084.54V1086.8999999999999C477.83099999999996 1087.29 477.84099999999995 1087.6499999999999 477.917 1088.0199999999998L477.78799999999995 1087.6699999999998C471.30699999999996 1089.4699999999998 466.38899999999995 1094.2199999999998 465.025 1100.1799999999998C464.938 1100.5399999999997 465.289 1100.9599999999998 465.71 1100.9999999999998H501.173C501.624 1100.9999999999998 501.992 1100.5699999999997 501.901 1100.1799999999998C501.16200000000003 1096.9299999999998 499.38100000000003 1094.1 496.933 1091.8899999999999L496.376 1093.35C498.125 1095.1 499.438 1097.26 500.145 1099.6599999999999H466.82399999999996C468.311 1094.6 472.61299999999994 1090.56 478.21599999999995 1088.9599999999998C479.04699999999997 1091.0499999999997 481.09299999999996 1092.5299999999997 483.4839999999999 1092.5299999999997C485.9049999999999 1092.5299999999997 487.87999999999994 1090.9999999999998 488.6669999999999 1088.8799999999997C488.6679999999999 1088.8699999999997 488.7079999999999 1088.8799999999997 488.7099999999999 1088.8799999999997C489.75499999999994 1089.1699999999996 490.7969999999999 1089.6599999999996 491.7509999999999 1090.1199999999997L492.3069999999999 1088.8299999999997C491.3019999999999 1088.3599999999997 490.1089999999999 1087.8999999999996 489.0089999999999 1087.5899999999997C489.0379999999999 1087.3599999999997 489.0519999999999 1087.1399999999996 489.0519999999999 1086.8999999999996V1084.4499999999996C491.5939999999999 1082.7699999999995 493.17599999999993 1079.8799999999997 493.37799999999993 1076.4599999999996C494.9699999999999 1076.1699999999996 496.2049999999999 1074.8099999999995 496.2049999999999 1073.1499999999996C496.2049999999999 1071.4999999999995 494.99299999999994 1070.0999999999997 493.42099999999994 1069.7999999999997V1068.3399999999997H493.46399999999994C493.47799999999995 1068.3399999999997 493.49299999999994 1068.3399999999997 493.50699999999995 1068.3399999999997C494.27799999999996 1068.3399999999997 495.09299999999996 1068.0399999999997 495.56199999999995 1067.3899999999996C496.03999999999996 1066.7299999999996 496.162 1065.8499999999997 496.162 1064.6399999999996V1057.7199999999996C496.186 1057.3399999999995 495.9 1057.0199999999995 495.522 1056.9899999999996C495.521 1056.9899999999996 495.52 1056.9899999999996 495.52 1056.9899999999996ZM481.471 1058.37H494.791V1064.6399999999999C494.791 1065.7099999999998 494.645 1066.3 494.449 1066.57C494.253 1066.85 494.029 1066.9299999999998 493.507 1066.9199999999998H476.375C476.346 1066.9199999999998 476.318 1066.9199999999998 476.289 1066.9199999999998C476.274 1066.9299999999998 476.26 1066.9499999999998 476.246 1066.9599999999998C476.202 1066.9699999999998 476.159 1066.9899999999998 476.118 1066.9999999999998C476.088 1067.0199999999998 476.06 1067.0299999999997 476.032 1067.0499999999997C475.984 1067.0799999999997 475.941 1067.1299999999997 475.904 1067.1799999999998L474.019 1069.0199999999998H472.178V1063.9499999999998C472.178 1063.7399999999998 472.323 1063.3799999999999 472.606 1063.09C472.888 1062.81 473.289 1062.62 473.505 1062.62H477.146C477.50800000000004 1062.62 477.808 1062.34 477.831 1061.9799999999998C477.831 1060.3999999999999 478.252 1059.5899999999997 478.85900000000004 1059.0999999999997C479.46600000000007 1058.6099999999997 480.362 1058.3699999999997 481.47100000000006 1058.3699999999997ZM476.632 1068.34H492.05V1071.86H490.594C490.57099999999997 1071.4799999999998 490.246 1071.1899999999998 489.86899999999997 1071.2199999999998C489.868 1071.2199999999998 489.86699999999996 1071.2199999999998 489.866 1071.2199999999998H485.626C485.56899999999996 1071.2099999999998 485.51099999999997 1071.2099999999998 485.455 1071.2199999999998C485.176 1071.3099999999997 484.98699999999997 1071.5699999999997 484.984 1071.86V1072.6299999999999H482.02799999999996V1071.86C482.00699999999995 1071.51 481.73099999999994 1071.24 481.38599999999997 1071.2199999999998H477.14599999999996C477.07499999999993 1071.1999999999998 477.00199999999995 1071.1999999999998 476.93199999999996 1071.2199999999998C476.65299999999996 1071.3099999999997 476.46399999999994 1071.5699999999997 476.46 1071.86H474.96099999999996V1070.06ZM473.548 1071.3V1074.83C472.795 1074.53 472.178 1073.9199999999998 472.178 1073.06C472.178 1072.2 472.795 1071.6 473.548 1071.3ZM493.464 1071.43C494.205 1071.73 494.791 1072.3 494.791 1073.15C494.791 1074 494.205 1074.5300000000002 493.464 1074.8300000000002ZM500.359 1071.9C500.11499999999995 1071.95 499.918 1072.14 499.84499999999997 1072.38L489.909 1096.5300000000002C489.78999999999996 1096.89 489.985 1097.2800000000002 490.34499999999997 1097.39C490.42499999999995 1097.42 490.51 1097.43 490.594 1097.43H493.421C493.703 1097.43 493.95799999999997 1097.26 494.063 1097L503.957 1072.85C504.099 1072.5 503.931 1072.1 503.58 1071.9499999999998C503.50899999999996 1071.9199999999998 503.43399999999997 1071.9099999999999 503.35699999999997 1071.8999999999999H500.48799999999994C500.44499999999994 1071.8999999999999 500.40199999999993 1071.8999999999999 500.3589999999999 1071.8999999999999ZM477.831 1072.59H480.701V1072.6299999999999H480.658V1074.01H480.701V1075.47H477.788V1073.24H477.831ZM486.354 1072.59H489.181V1073.24H489.224V1075.47H486.354ZM474.961 1073.24H476.46000000000004V1076.11C476.437 1076.49 476.72400000000005 1076.82 477.10200000000003 1076.84C477.11600000000004 1076.84 477.13100000000003 1076.84 477.146 1076.84H481.386C481.764 1076.82 482.05100000000004 1076.5 482.028 1076.12C482.028 1076.12 482.028 1076.12 482.028 1076.11V1074.01H484.98400000000004V1076.11C484.95900000000006 1076.49 485.24600000000004 1076.82 485.62300000000005 1076.84C485.62300000000005 1076.84 485.62500000000006 1076.84 485.62600000000003 1076.84H489.86600000000004C490.244 1076.87 490.57000000000005 1076.58 490.59400000000005 1076.1999999999998C490.59600000000006 1076.1699999999998 490.59600000000006 1076.1399999999999 490.59400000000005 1076.11V1073.24H492.05000000000007V1075.73C492.05000000000007 1080.97 488.73600000000005 1084.67 483.52700000000004 1084.67C478.319 1084.67 474.96100000000007 1080.98 474.96100000000007 1075.73ZM500.959 1073.28H502.287L492.95 1096.05H491.622ZM479.159 1085.1C480.443 1085.6899999999998 481.925 1086.04 483.527 1086.04C485.056 1086.04 486.441 1085.73 487.68199999999996 1085.18V1086.9C487.68199999999996 1089.27 485.881 1091.15 483.484 1091.15C481.08799999999997 1091.15 479.159 1089.25 479.159 1086.9Z " fill="#0084ff" fill-opacity="1" transform="matrix(1,0,0,1,-465,-1056)"></path></svg>