<svg id="SvgjsSvg1008" xmlns="http://www.w3.org/2000/svg" version="1.1" xmlns:xlink="http://www.w3.org/1999/xlink" xmlns:svgjs="http://svgjs.com/svgjs" width="32" height="44" viewBox="0 0 32 44"><title>Shape 37</title><desc>Created with Avocode.</desc><defs id="SvgjsDefs1009"></defs><path id="SvgjsPath1010" d="M945.687 1101H973.244C973.657 1101 973.933 1100.72 973.933 1100.31V1094.81H975.311C975.724 1094.81 976 1094.54 976 1094.12V1068.6899999999998C976 1068.62 976 1068.4799999999998 975.931 1068.4099999999999L973.933 1063.7399999999998V1057.6899999999998C973.933 1057.2699999999998 973.657 1056.9999999999998 973.244 1056.9999999999998H945.687C945.274 1056.9999999999998 944.998 1057.2699999999998 944.998 1057.6899999999998V1100.3099999999997C944.998 1100.7199999999998 945.274 1100.9999999999998 945.687 1100.9999999999998ZM974.622 1093.44H971.866V1090.69H974.622ZM974.622 1089.31H971.866V1069.37H974.622ZM974.277 1068H972.211L973.244 1065.59ZM946.376 1058.37H972.555V1063.7399999999998L970.5569999999999 1068.4099999999999C970.4879999999999 1068.4799999999998 970.4879999999999 1068.62 970.4879999999999 1068.6899999999998V1094.12C970.4879999999999 1094.54 970.7639999999999 1094.81 971.1769999999999 1094.81H972.555V1099.62H946.376ZM967.044 1062.5H949.132C948.7189999999999 1062.5 948.443 1062.77 948.443 1063.19C948.443 1063.6000000000001 948.7189999999999 1063.8700000000001 949.132 1063.8700000000001H967.044C967.457 1063.8700000000001 967.733 1063.6000000000001 967.733 1063.19C967.733 1062.77 967.457 1062.5 967.044 1062.5ZM949.132 1067.31H961.5319999999999C961.9459999999999 1067.31 962.2209999999999 1067.04 962.2209999999999 1066.62C962.2209999999999 1066.2099999999998 961.9459999999999 1065.9399999999998 961.5319999999999 1065.9399999999998H949.132C948.7189999999999 1065.9399999999998 948.443 1066.2099999999998 948.443 1066.62C948.443 1067.04 948.7189999999999 1067.31 949.132 1067.31ZM949.132 1086.56H956.021C956.434 1086.56 956.7099999999999 1086.29 956.7099999999999 1085.87C956.7099999999999 1085.4599999999998 956.434 1085.1899999999998 956.021 1085.1899999999998H949.132C948.7189999999999 1085.1899999999998 948.443 1085.4599999999998 948.443 1085.87C948.443 1086.29 948.7189999999999 1086.56 949.132 1086.56ZM965.666 1069.37H949.1320000000001C948.719 1069.37 948.4430000000001 1069.6499999999999 948.4430000000001 1070.06C948.4430000000001 1070.47 948.719 1070.75 949.1320000000001 1070.75H965.666C966.0790000000001 1070.75 966.355 1070.47 966.355 1070.06C966.355 1069.6499999999999 966.0790000000001 1069.37 965.666 1069.37ZM949.132 1074.19H954.6429999999999C955.0569999999999 1074.19 955.3319999999999 1073.91 955.3319999999999 1073.5C955.3319999999999 1073.09 955.0569999999999 1072.81 954.6429999999999 1072.81H949.132C948.7189999999999 1072.81 948.443 1073.09 948.443 1073.5C948.443 1073.91 948.7189999999999 1074.19 949.132 1074.19ZM949.132 1079.69H960.155C960.568 1079.69 960.8439999999999 1079.41 960.8439999999999 1079C960.8439999999999 1078.59 960.568 1078.31 960.155 1078.31H949.132C948.7189999999999 1078.31 948.443 1078.59 948.443 1079C948.443 1079.41 948.7189999999999 1079.69 949.132 1079.69ZM965.666 1081.75H949.1320000000001C948.719 1081.75 948.4430000000001 1082.02 948.4430000000001 1082.44C948.4430000000001 1082.8500000000001 948.719 1083.1200000000001 949.1320000000001 1083.1200000000001H965.666C966.0790000000001 1083.1200000000001 966.355 1082.8500000000001 966.355 1082.44C966.355 1082.02 966.0790000000001 1081.75 965.666 1081.75ZM962.91 1088.62H949.132C948.7189999999999 1088.62 948.443 1088.8999999999999 948.443 1089.31C948.443 1089.72 948.7189999999999 1090 949.132 1090H962.91C963.324 1090 963.5989999999999 1089.72 963.5989999999999 1089.31C963.5989999999999 1088.8999999999999 963.324 1088.62 962.91 1088.62ZM962.91 1094.12H949.132C948.7189999999999 1094.12 948.443 1094.3999999999999 948.443 1094.81C948.443 1095.22 948.7189999999999 1095.5 949.132 1095.5H962.91C963.324 1095.5 963.5989999999999 1095.22 963.5989999999999 1094.81C963.5989999999999 1094.3999999999999 963.324 1094.12 962.91 1094.12Z " fill="#0084ff" fill-opacity="1" transform="matrix(1,0,0,1,-944,-1057)"></path></svg>