<svg xmlns="http://www.w3.org/2000/svg" xmlns:xlink="http://www.w3.org/1999/xlink" width="39" height="43" viewBox="0 0 39 43">
  <defs>
    <style>
      .cls-1 {
        fill: #0084ff;
        fill-rule: evenodd;
        filter: url(#filter);
      }
    </style>
    <filter id="filter" x="280" y="3355" width="39" height="43" filterUnits="userSpaceOnUse">
      <feFlood result="flood"/>
      <feComposite result="composite" operator="in" in2="SourceGraphic"/>
      <feBlend result="blend" in2="SourceGraphic"/>
    </filter>
  </defs>
  <path id="board" class="cls-1" d="M318.326,3355H280.685a0.678,0.678,0,0,0-.685.67v26.3a0.678,0.678,0,0,0,.685.67h9.2l-2.768,6.41h-4.247a0.677,0.677,0,0,0-.682.67,0.686,0.686,0,0,0,.682.68h3.662l-2.87,6.65a0.692,0.692,0,0,0,.363.9,0.635,0.635,0,0,0,.265.05,0.693,0.693,0,0,0,.629-0.42l3.1-7.18h22.957l3.1,7.18a0.685,0.685,0,0,0,.628.42,0.607,0.607,0,0,0,.265-0.05,0.688,0.688,0,0,0,.364-0.9l-2.866-6.65h3.662a0.682,0.682,0,0,0,.679-0.68,0.67,0.67,0,0,0-.679-0.67h-4.247l-2.764-6.41h9.2a0.675,0.675,0,0,0,.684-0.67v-26.3A0.664,0.664,0,0,0,318.326,3355Zm-7.921,34.05H288.61l2.764-6.41h16.269Zm7.234-7.76h-36.27v-24.94h36.27v24.94Zm-34.354-1.65H315.73a0.273,0.273,0,0,0,.271-0.28v-20.99a0.27,0.27,0,0,0-.271-0.27H283.285a0.273,0.273,0,0,0-.273.27v20.99A0.275,0.275,0,0,0,283.285,3379.64Zm0.275-21h31.89v20.46H283.56v-20.46Z" transform="translate(-280 -3355)"/>
</svg>
