<?xml version="1.0" encoding="utf-8"?>
<!-- Generator: Adobe Illustrator 19.2.1, SVG Export Plug-In . SVG Version: 6.00 Build 0)  -->
<svg version="1.1" id="Layer_1" xmlns="http://www.w3.org/2000/svg" xmlns:xlink="http://www.w3.org/1999/xlink" x="0px" y="0px"
	 viewBox="0 0 14 14" style="enable-background:new 0 0 14 14;" xml:space="preserve">
<style type="text/css">
	.st0{fill:#ffffff;}
</style>
<path class="st0" d="M11.5,1.7V0h-1v1.7h-3V0h-1v1.7h-3V0h-1v1.7H0V14h14V1.7H11.5z M13,13L1,13V2.7h1.6v1.2h1V2.7h3v1.2h1V2.7h3
	v1.2h1V2.7H13V13z M9,6h2v1H9V6z M6,6h2v1H6V6z M6,8h2v1H6V8z M3,8h2v1H3V8z M9,8h2v1H9V8z M6,10h2v1H6V10z M3,10h2v1H3V10z M9,10h2
	v1H9V10z"/>
</svg>
