<svg id="SvgjsSvg1008" xmlns="http://www.w3.org/2000/svg" version="1.1" xmlns:xlink="http://www.w3.org/1999/xlink" xmlns:svgjs="http://svgjs.com/svgjs" width="14" height="18" viewBox="0 0 14 18"><title>Shape 11</title><desc>Created with Avocode.</desc><defs id="SvgjsDefs1009"></defs><path id="SvgjsPath1010" d="M1874.5 119H1873V118.501C1873 116.339 1870.92 115 1869 115C1867.08 115 1865 116.339 1865 118.501V119H1863.5C1862.67 119 1862 119.674 1862 120.5V131.5C1862 132.328 1862.67 132.999 1863.5 132.999H1874.5C1875.33 132.999 1876 132.328 1876 131.5V120.5C1876 119.674 1875.33 119 1874.5 119ZM1866 118.501C1866 117.001 1867.5 116 1869 116C1870.5 116 1872 117.001 1872 118.501V119H1866ZM1875 131.5C1875 131.777 1874.78 132 1874.5 132H1863.5C1863.22 132 1863 131.777 1863 131.5V120.5C1863 120.223 1863.22 120.001 1863.5 120.001H1874.5C1874.78 120.001 1875 120.223 1875 120.5Z " fill="#ffffff" fill-opacity="1" transform="matrix(1,0,0,1,-1862,-115)"></path></svg>