<svg xmlns="http://www.w3.org/2000/svg" width="30" height="42" viewBox="0 0 30 42">
  <defs>
    <style>
      .cls-1 {
        fill: #0084ff;
        fill-rule: evenodd;
      }
    </style>
  </defs>
  <path id="certificate" class="cls-1" d="M537.222,2668h0c-0.044.01-.088,0.01-0.132,0.02H514v39.78h17.99v2.19l3-2.04,3,2.04v-2.19h6v-32.77a0.805,0.805,0,0,0,0-.25v-0.19l-0.126-.13s-0.008-.01-0.012-0.01a0.621,0.621,0,0,0-.143-0.15c0-.01-0.008-0.01-0.012-0.02l-5.85-5.97a0.973,0.973,0,0,0-.164-0.17l-0.129-.13h-0.173A0.742,0.742,0,0,0,537.222,2668Zm-21.726,1.54h20.988v6.12h6v30.6h-4.5v-4.25a4.631,4.631,0,0,0,1.5-3.4,4.5,4.5,0,1,0-8.994,0,4.631,4.631,0,0,0,1.5,3.4v4.25H515.5v-36.72Zm22.487,1.09,3.438,3.5h-3.438v-3.5Zm-14.991,1.98v1.52h10.494v-1.52H522.992Zm-4.5,4.58v1.53h20.988v-1.53H518.494Zm0,3.06v1.53h20.988v-1.53H518.494Zm0,3.06v1.53h20.988v-1.53H518.494Zm0,3.06v1.53h20.988v-1.53H518.494Zm0,3.06v1.53h20.988v-1.53H518.494Zm0,3.06v1.53h10.494v-1.53H518.494Zm16.491,3.06a3.061,3.061,0,1,1-3,3.06A3.017,3.017,0,0,1,534.985,2695.55Zm-1.5,7.37a4.153,4.153,0,0,0,3,0v4.21l-1.5-1.02-1.5,1.02v-4.21Z" transform="translate(-514 -2668)"/>
</svg>
