<svg id="SvgjsSvg1000" xmlns="http://www.w3.org/2000/svg" version="1.1" xmlns:xlink="http://www.w3.org/1999/xlink" xmlns:svgjs="http://svgjs.com/svgjs" width="40" height="48" viewBox="0 0 40 48"><title>Shape 33</title><desc>Created with Avocode.</desc><defs id="SvgjsDefs1001"></defs><path id="SvgjsPath1007" d="M318.954 3178.49C318.908 3178.2 318.663 3178 318.37600000000003 3178H313.687C313.682 3178 313.678 3178 313.672 3178C313.66600000000005 3178 313.663 3178 313.658 3178H285.587C285.462 3178 285.347 3178.05 285.24899999999997 3178.12C285.152 3178.0499999999997 285.039 3178 284.909 3178H280.633C280.352 3178 280.109 3178.2 280.058 3178.47C280.042 3178.5499999999997 278.646 3186.6 289.327 3188.66C289.364 3188.67 289.402 3188.67 289.438 3188.67C289.495 3188.67 289.551 3188.66 289.604 3188.64C292.014 3190.9 295.192 3192.33 298.705 3192.54L297.395 3194.2799999999997C297.221 3194.5099999999998 297.24399999999997 3194.8399999999997 297.44899999999996 3195.04L299.09999999999997 3196.69L297.395 3198.9500000000003C297.221 3199.1800000000003 297.24399999999997 3199.51 297.44899999999996 3199.7100000000005L299.09999999999997 3201.3500000000004L297.395 3203.6200000000003C297.221 3203.8500000000004 297.24399999999997 3204.1800000000003 297.44899999999996 3204.3800000000006L299.09999999999997 3206.0200000000004L297.395 3208.2900000000004C297.221 3208.5200000000004 297.24399999999997 3208.8500000000004 297.44899999999996 3209.0500000000006L299.09999999999997 3210.6900000000005L297.395 3212.9600000000005C297.221 3213.1900000000005 297.24399999999997 3213.5100000000007 297.44899999999996 3213.7200000000007L299.20699999999994 3215.4700000000007C299.21899999999994 3215.480000000001 299.23299999999995 3215.480000000001 299.24499999999995 3215.4900000000007H294.93399999999997C293.965 3215.4900000000007 293.176 3216.2800000000007 293.176 3217.250000000001V3220.1600000000008H290.93C290.607 3220.1600000000008 290.344 3220.420000000001 290.344 3220.750000000001V3224.830000000001H289.074C288.75 3224.830000000001 288.487 3225.090000000001 288.487 3225.420000000001C288.487 3225.740000000001 288.75 3226.000000000001 289.074 3226.000000000001H310.171C310.495 3226.000000000001 310.757 3225.7400000000007 310.757 3225.420000000001C310.757 3225.090000000001 310.495 3224.830000000001 310.171 3224.830000000001H309.098V3220.750000000001C309.098 3220.420000000001 308.83500000000004 3220.1600000000008 308.512 3220.1600000000008H306.069V3217.250000000001C306.069 3216.280000000001 305.28000000000003 3215.4900000000007 304.31100000000004 3215.4900000000007H299.999C300.01000000000005 3215.4800000000005 300.024 3215.4800000000005 300.036 3215.4700000000007L301.794 3213.7200000000007C302.001 3213.5100000000007 302.02299999999997 3213.1900000000005 301.849 3212.9600000000005L300.144 3210.6900000000005L301.794 3209.0500000000006C302.001 3208.850000000001 302.02299999999997 3208.5200000000004 301.849 3208.2900000000004L300.144 3206.03L301.794 3204.38C302.001 3204.1800000000003 302.02299999999997 3203.85 301.849 3203.62L300.144 3201.3599999999997L301.794 3199.7099999999996C302.001 3199.5099999999998 302.02299999999997 3199.1799999999994 301.849 3198.9499999999994L300.144 3196.689999999999L301.794 3195.039999999999C302.001 3194.8399999999992 302.02299999999997 3194.509999999999 301.849 3194.279999999999L300.53999999999996 3192.549999999999C304.066 3192.329999999999 307.25499999999994 3190.889999999999 309.66799999999995 3188.619999999999C320.12199999999996 3186.499999999999 318.96799999999996 3178.569999999999 318.95399999999995 3178.489999999999ZM307.925 3224.83H291.516V3221.33H307.925ZM304.897 3217.25V3220.16H294.348V3217.25C294.348 3216.93 294.611 3216.66 294.934 3216.66H304.31100000000004C304.63300000000004 3216.66 304.89700000000005 3216.93 304.89700000000005 3217.25ZM311.095 3187.05C312.838 3184.86 313.95500000000004 3182.15 314.194 3179.1600000000003H317.84000000000003C317.90000000000003 3180.6600000000003 317.49300000000005 3185.11 311.095 3187.05ZM281.156 3179.16H284.909C284.95799999999997 3179.16 285.004 3179.1499999999996 285.05 3179.14C285.288 3182.21 286.457 3184.99 288.28200000000004 3187.22C281.36500000000007 3185.3799999999997 281.06000000000006 3180.6899999999996 281.15600000000006 3179.16ZM299.622 3214.23L298.63800000000003 3213.25L299.622 3211.94L300.607 3213.25ZM299.622 3209.56L298.63800000000003 3208.58L299.622 3207.2799999999997L300.607 3208.58ZM299.622 3204.89L298.63800000000003 3203.91L299.622 3202.6099999999997L300.607 3203.91ZM299.622 3200.22L298.63800000000003 3199.24L299.622 3197.9399999999996L300.607 3199.24ZM299.622 3195.56L298.63800000000003 3194.58L299.622 3193.27L300.607 3194.58ZM299.622 3191.42C292.584 3191.42 286.807 3186.08 286.211 3179.16H313.033C312.439 3186.08 306.661 3191.42 299.622 3191.42Z " fill="#0084ff" fill-opacity="1" transform="matrix(1,0,0,1,-279,-3178)"></path></svg>