<svg id="SvgjsSvg1008" xmlns="http://www.w3.org/2000/svg" version="1.1" xmlns:xlink="http://www.w3.org/1999/xlink" xmlns:svgjs="http://svgjs.com/svgjs" width="31" height="43" viewBox="0 0 31 43"><title>Shape 36</title><desc>Created with Avocode.</desc><defs id="SvgjsDefs1009"></defs><path id="SvgjsPath1010" d="M1004.5 3183.31C1003.59 3183.31 1002.83 3182.56 1002.83 3181.67C1002.83 3180.78 1003.59 3180.04 1004.5 3180.04C1005.41 3180.04 1006.17 3180.7799999999997 1006.17 3181.67C1006.17 3182.56 1005.41 3183.31 1004.5 3183.31ZM1004.5 3180.97C1004.12 3180.97 1003.78 3181.2999999999997 1003.78 3181.6699999999996C1003.78 3182.0499999999997 1004.12 3182.3699999999994 1004.5 3182.3699999999994C1004.88 3182.3699999999994 1005.22 3182.0499999999993 1005.22 3181.6699999999996C1005.22 3181.2999999999997 1004.88 3180.97 1004.5 3180.97ZM1017.9 3181.21H1009.27C1009.03 3178.87 1006.98 3177 1004.5 3177C1002.02 3177 1000.02 3178.87 999.731 3181.21H991.098C989.954 3181.21 989 3182.14 989 3183.26V3217.94C989 3219.06 989.954 3220 991.098 3220H1017.9C1019.05 3220 1020 3219.06 1020 3217.94V3183.26C1020 3182.1400000000003 1019.05 3181.21 1017.9 3181.21ZM994.246 3183.78C994.246 3183.6400000000003 994.294 3183.4500000000003 994.341 3183.3100000000004C994.532 3182.6500000000005 995.2 3182.1400000000003 995.915 3182.1400000000003H1000.68V3181.6700000000005C1000.68 3181.5300000000007 1000.68 3181.3500000000004 1000.7299999999999 3181.2100000000005C1000.9699999999999 3179.3800000000006 1002.5899999999999 3177.9300000000003 1004.4999999999999 3177.9300000000003C1006.4099999999999 3177.9300000000003 1008.0299999999999 3179.38 1008.2699999999999 3181.2100000000005C1008.2699999999999 3181.3500000000004 1008.3199999999998 3181.5300000000007 1008.3199999999998 3181.6700000000005V3182.1400000000003H1013.0799999999998C1013.8499999999998 3182.1400000000003 1014.4699999999998 3182.6500000000005 1014.6599999999999 3183.3100000000004C1014.7099999999998 3183.4500000000003 1014.7499999999999 3183.6400000000003 1014.7499999999999 3183.78V3185.4100000000003H994.2459999999999ZM1015.71 3184.24H1016.9000000000001V3216.9599999999996H992.1000000000001V3184.24H993.2920000000001V3186.35H1015.7100000000002ZM1019.05 3217.94C1019.05 3218.55 1018.52 3219.06 1017.9 3219.06H991.098C990.478 3219.06 989.954 3218.5499999999997 989.954 3217.94V3183.26C989.954 3182.65 990.478 3182.1400000000003 991.098 3182.1400000000003H993.865C993.578 3182.4700000000003 993.388 3182.8900000000003 993.292 3183.3100000000004H991.671C991.3850000000001 3183.3100000000004 991.1460000000001 3183.5400000000004 991.1460000000001 3183.8200000000006V3217.330000000001C991.1460000000001 3217.610000000001 991.3850000000001 3217.850000000001 991.671 3217.850000000001H1017.2800000000001C1017.57 3217.850000000001 1017.8100000000001 3217.610000000001 1017.8100000000001 3217.330000000001V3183.8200000000006C1017.8100000000001 3183.5400000000004 1017.57 3183.3100000000004 1017.2800000000001 3183.3100000000004H1015.6600000000001C1015.5600000000001 3182.8900000000003 1015.3700000000001 3182.4700000000003 1015.09 3182.1400000000003H1017.85C1018.47 3182.1400000000003 1019 3182.6500000000005 1019 3183.26V3217.94ZM1001.45 3203.87C1001.3000000000001 3203.87 1001.21 3203.83 1001.11 3203.73L998.061 3200.7400000000002C997.871 3200.5600000000004 997.871 3200.2700000000004 998.061 3200.09C998.2520000000001 3199.9 998.538 3199.9 998.729 3200.09L1001.45 3202.75L1010.22 3194.15C1010.4100000000001 3193.9700000000003 1010.7 3193.9700000000003 1010.89 3194.15C1011.08 3194.34 1011.08 3194.62 1010.89 3194.81L1001.78 3203.7799999999997C1001.73 3203.83 1001.5899999999999 3203.87 1001.4499999999999 3203.87Z " fill="#0084ff" fill-opacity="1" transform="matrix(1,0,0,1,-989,-3177)"></path></svg>