<svg id="SvgjsSvg1011" xmlns="http://www.w3.org/2000/svg" version="1.1" xmlns:xlink="http://www.w3.org/1999/xlink" xmlns:svgjs="http://svgjs.com/svgjs" width="40" height="43" viewBox="0 0 40 43"><title>Shape 34</title><desc>Created with Avocode.</desc><defs id="SvgjsDefs1012"></defs><path id="SvgjsPath1013" d="M318.326 3355H280.685C280.308 3355 280 3355.3 280 3355.67V3381.9700000000003C280 3382.34 280.307 3382.6400000000003 280.685 3382.6400000000003H289.886L287.11800000000005 3389.05H282.87100000000004C282.49600000000004 3389.05 282.189 3389.3500000000004 282.189 3389.7200000000003C282.189 3390.09 282.49600000000004 3390.4 282.87100000000004 3390.4H286.533L283.663 3397.05C283.517 3397.4 283.677 3397.79 284.026 3397.9500000000003C284.118 3397.9900000000002 284.20300000000003 3398.0000000000005 284.291 3398.0000000000005C284.554 3398.0000000000005 284.807 3397.8400000000006 284.92 3397.5800000000004L288.022 3390.4000000000005H310.979L314.079 3397.5800000000004C314.188 3397.8400000000006 314.442 3398.0000000000005 314.707 3398.0000000000005C314.799 3398.0000000000005 314.88599999999997 3397.9900000000002 314.972 3397.9500000000003C315.323 3397.7900000000004 315.48499999999996 3397.4 315.33599999999996 3397.05L312.46999999999997 3390.4H316.13199999999995C316.5079999999999 3390.4 316.8109999999999 3390.09 316.8109999999999 3389.7200000000003C316.8109999999999 3389.34 316.5039999999999 3389.05 316.13199999999995 3389.05H311.88499999999993L309.1209999999999 3382.6400000000003H318.3189999999999C318.6999999999999 3382.6400000000003 319.00299999999993 3382.34 319.00299999999993 3381.9700000000003V3355.67C319.01199999999994 3355.3 318.7059999999999 3355 318.3259999999999 3355ZM310.405 3389.05H288.60999999999996L291.37399999999997 3382.6400000000003H307.643ZM317.639 3381.29H281.369V3356.35H317.639ZM283.285 3379.64H315.73C315.879 3379.64 316.00100000000003 3379.52 316.00100000000003 3379.3599999999997V3358.37C316.00100000000003 3358.22 315.879 3358.1 315.73 3358.1H283.285C283.137 3358.1 283.012 3358.22 283.012 3358.37V3379.3599999999997C283.012 3379.5199999999995 283.137 3379.64 283.285 3379.64ZM283.56 3358.64H315.45V3379.1H283.56Z " fill="#0084ff" fill-opacity="1" transform="matrix(1,0,0,1,-280,-3355)"></path></svg>