<svg id="SvgjsSvg1014" xmlns="http://www.w3.org/2000/svg" version="1.1" xmlns:xlink="http://www.w3.org/1999/xlink" xmlns:svgjs="http://svgjs.com/svgjs" width="49" height="28" viewBox="0 0 49 28"><title>Shape 37</title><desc>Created with Avocode.</desc><defs id="SvgjsDefs1015"></defs><path id="SvgjsPath1016" d="M1027.89 3365.2C1027.7900000000002 3365.0699999999997 1017.0600000000001 3352 1003.9900000000001 3352C990.9260000000002 3352 980.2010000000001 3365.07 980.0950000000001 3365.2C979.9560000000001 3365.3799999999997 979.9560000000001 3365.6299999999997 980.0950000000001 3365.7999999999997C980.2010000000001 3365.93 990.9260000000002 3379.0099999999998 1003.9900000000001 3379.0099999999998C1017.0600000000002 3379.0099999999998 1027.7900000000002 3365.93 1027.89 3365.7999999999997C1028.0300000000002 3365.6299999999997 1028.0300000000002 3365.3799999999997 1027.89 3365.2ZM1003.99 3378.07C992.443 3378.07 982.713 3367.4300000000003 981.044 3365.5C982.712 3363.57 992.435 3352.93 1003.99 3352.93C1015.55 3352.93 1025.28 3363.5699999999997 1026.94 3365.5C1025.28 3367.43 1015.5500000000001 3378.07 1003.99 3378.07ZM1003.99 3355.72C998.749 3355.72 994.4830000000001 3360.1099999999997 994.4830000000001 3365.5C994.4830000000001 3370.89 998.749 3375.28 1003.99 3375.28C1009.24 3375.28 1013.51 3370.8900000000003 1013.51 3365.5C1013.51 3360.11 1009.24 3355.72 1003.99 3355.72ZM1003.99 3374.35C999.249 3374.35 995.389 3370.38 995.389 3365.5C995.389 3360.62 999.249 3356.65 1003.99 3356.65C1008.74 3356.65 1012.6 3360.62 1012.6 3365.5C1012.6 3370.38 1008.74 3374.35 1003.99 3374.35ZM1003.99 3361.31C1001.75 3361.31 999.918 3363.19 999.918 3365.5C999.918 3367.81 1001.75 3369.69 1003.99 3369.69C1006.24 3369.69 1008.07 3367.81 1008.07 3365.5C1008.07 3363.19 1006.24 3361.31 1003.99 3361.31ZM1003.99 3368.76C1002.25 3368.76 1000.82 3367.3 1000.82 3365.5C1000.82 3363.7 1002.25 3362.24 1003.99 3362.24C1005.74 3362.24 1007.16 3363.7 1007.16 3365.5C1007.16 3367.3 1005.74 3368.76 1003.99 3368.76Z " fill="#0084ff" fill-opacity="1" transform="matrix(1,0,0,1,-979,-3352)"></path></svg>