<svg xmlns="http://www.w3.org/2000/svg" width="36.031" height="41" viewBox="0 0 36.031 41">
  <defs>
    <style>
      .cls-1 {
        fill: #0084ff;
        fill-rule: evenodd;
      }
    </style>
  </defs>
  <path id="cup" class="cls-1" d="M970.458,2683.55l5.98-5.93a5.258,5.258,0,0,0,0-7.48,5.818,5.818,0,0,0-5.1-1.37V2668H948.663v0.77a5.361,5.361,0,0,0-5.1,1.38,5.258,5.258,0,0,0,0,7.48l5.98,5.93a11.318,11.318,0,0,0,7.785,6.6v6.94H952v3.97h-4.67V2709h25.334v-7.93h-4.67v-3.97h-5.329v-6.94A11.328,11.328,0,0,0,970.458,2683.55Zm0.871-4.31v-9.09a4.045,4.045,0,0,1,4.157.93,3.932,3.932,0,0,1,0,5.6l-4.3,4.27A10.857,10.857,0,0,0,971.329,2679.24Zm-26.823-2.56a3.932,3.932,0,0,1,0-5.6,4.189,4.189,0,0,1,4.165-.93v9.09a10.97,10.97,0,0,0,.13,1.71Zm26.823,25.71v5.29H948.663v-5.29h22.666Zm-4.67-3.97v2.65H953.333v-2.65h13.326Zm-8-1.32v-6.7a10.826,10.826,0,0,0,2.668,0v6.7h-2.668Zm1.334-7.94a9.969,9.969,0,0,1-10-9.92v-9.92h20v9.92A9.969,9.969,0,0,1,960,2689.16Zm8.144-12.54h-6.216L960,2670.75l-1.92,5.87H951.86l5.028,3.62-1.92,5.87,5.028-3.62,5.028,3.62-1.92-5.87ZM960,2680.85l-2.5,1.8,0.952-2.92-2.5-1.79h3.083l0.96-2.91,0.952,2.91h3.083l-2.489,1.79,0.952,2.92Z" transform="translate(-942 -2668)"/>
</svg>
