<svg id="SvgjsSvg1000" xmlns="http://www.w3.org/2000/svg" version="1.1" xmlns:xlink="http://www.w3.org/1999/xlink" xmlns:svgjs="http://svgjs.com/svgjs" width="17" height="17" viewBox="0 0 17 17"><title>Shape 19</title><desc>Created with Avocode.</desc><defs id="SvgjsDefs1001"></defs><path id="SvgjsPath1007" d="M1834 132.328C1834 132.143 1833.93 131.983 1833.8 131.848L1830.05 128.101C1830.83 127.196 1831.34 126.17399999999999 1831.58 125.037V125.02600000000001C1831.6999999999998 124.50000000000001 1831.76 123.95200000000001 1831.76 123.382C1831.76 121.339 1831.04 119.595 1829.59 118.14800000000001C1828.1599999999999 116.71600000000001 1826.4199999999998 116.00000000000001 1824.3799999999999 116.00000000000001C1822.34 116.00100000000002 1820.59 116.71600000000001 1819.1499999999999 118.14800000000001C1817.7199999999998 119.59500000000001 1816.9999999999998 121.33900000000001 1816.9999999999998 123.382C1816.9999999999998 125.424 1817.7199999999998 127.161 1819.1499999999999 128.59300000000002C1820.59 130.04000000000002 1822.34 130.763 1824.3799999999999 130.763C1826.1999999999998 130.763 1827.77 130.193 1829.1 129.052L1832.85 132.798C1832.98 132.933 1833.1399999999999 133 1833.33 133C1833.51 133 1833.6699999999998 132.933 1833.8 132.798C1833.93 132.671 1834 132.51500000000001 1834 132.328C1834 132.143 1834 132.328 1834 132.328ZM1828.64 119.098C1829.8300000000002 120.283 1830.42 121.711 1830.42 123.382C1830.42 123.855 1830.3700000000001 124.31 1830.28 124.74600000000001C1830.03 125.84 1829.49 126.80100000000002 1828.6499999999999 127.63100000000001L1828.6299999999999 127.65400000000001C1827.4599999999998 128.83100000000002 1826.05 129.42000000000002 1824.3799999999999 129.42100000000002C1822.7099999999998 129.42100000000002 1821.28 128.82800000000003 1820.1 127.64300000000001C1818.9299999999998 126.47200000000001 1818.34 125.05200000000002 1818.34 123.38200000000002C1818.34 121.71100000000001 1818.9299999999998 120.28300000000002 1820.1 119.09800000000001C1821.28 117.92600000000002 1822.7099999999998 117.34200000000001 1824.3799999999999 117.34200000000001C1826.05 117.34200000000001 1827.4699999999998 117.927 1828.6399999999999 119.09800000000001Z " fill="#acc1cf" fill-opacity="1" transform="matrix(1,0,0,1,-1817,-116)"></path></svg>
