<svg xmlns="http://www.w3.org/2000/svg" width="31" height="44" viewBox="0 0 31 44">
  <defs>
    <style>
      .cls-1 {
        fill: #0084ff;
        fill-rule: evenodd;
      }
    </style>
  </defs>
  <path id="Exam_Results" class="cls-1" d="M945.687,1101h27.557a0.654,0.654,0,0,0,.689-0.69v-5.5h1.378a0.649,0.649,0,0,0,.689-0.69v-25.43a0.426,0.426,0,0,0-.069-0.28h0l-2-4.67v-6.05a0.649,0.649,0,0,0-.689-0.69H945.687a0.649,0.649,0,0,0-.689.69v42.62A0.654,0.654,0,0,0,945.687,1101Zm28.935-7.56h-2.756v-2.75h2.756v2.75Zm0-4.13h-2.756v-19.94h2.756v19.94ZM974.277,1068h-2.066l1.033-2.41Zm-27.9-9.63h26.179v5.37l-2,4.67h0a0.426,0.426,0,0,0-.069.28v25.43a0.649,0.649,0,0,0,.689.69h1.378v4.81H946.376v-41.25Zm20.668,4.13H949.132a0.685,0.685,0,1,0,0,1.37h17.912A0.685,0.685,0,1,0,967.044,1062.5Zm-17.912,4.81h12.4a0.685,0.685,0,1,0,0-1.37h-12.4A0.685,0.685,0,1,0,949.132,1067.31Zm0,19.25h6.889a0.685,0.685,0,1,0,0-1.37h-6.889A0.685,0.685,0,1,0,949.132,1086.56Zm16.534-17.19H949.132a0.69,0.69,0,0,0,0,1.38h16.534A0.69,0.69,0,0,0,965.666,1069.37Zm-16.534,4.82h5.511a0.69,0.69,0,0,0,0-1.38h-5.511A0.69,0.69,0,0,0,949.132,1074.19Zm0,5.5h11.023a0.69,0.69,0,0,0,0-1.38H949.132A0.69,0.69,0,0,0,949.132,1079.69Zm16.534,2.06H949.132a0.685,0.685,0,1,0,0,1.37h16.534A0.685,0.685,0,1,0,965.666,1081.75Zm-2.756,6.87H949.132a0.69,0.69,0,0,0,0,1.38H962.91A0.69,0.69,0,0,0,962.91,1088.62Zm0,5.5H949.132a0.69,0.69,0,0,0,0,1.38H962.91A0.69,0.69,0,0,0,962.91,1094.12Z" transform="translate(-945 -1057)"/>
</svg>
