<svg xmlns="http://www.w3.org/2000/svg" width="38.969" height="44" viewBox="0 0 38.969 44">
  <defs>
    <style>
      .cls-1 {
        fill: #0084ff;
        fill-rule: evenodd;
      }
    </style>
  </defs>
  <path id="Experienced_Instructors" class="cls-1" d="M481.471,1056.99a5.515,5.515,0,0,0-3.511,1.03,4.537,4.537,0,0,0-1.371,3.23h-3.084a2.97,2.97,0,0,0-2.7,2.7v5.76a0.689,0.689,0,0,0,.642.69h0.729a3.348,3.348,0,0,0,1.456,5.97,10.1,10.1,0,0,0,4.154,7.95,0.688,0.688,0,0,0,.043.22v2.36a5.455,5.455,0,0,0,.086,1.12l-0.129-.35c-6.481,1.8-11.4,6.55-12.763,12.51a0.75,0.75,0,0,0,.685.82h35.463a0.727,0.727,0,0,0,.728-0.82,15.939,15.939,0,0,0-4.968-8.29l-0.557,1.46a14.9,14.9,0,0,1,3.769,6.31H466.824a16.237,16.237,0,0,1,11.392-10.7,5.669,5.669,0,0,0,5.268,3.57,5.51,5.51,0,0,0,5.183-3.65,0.063,0.063,0,0,1,.043,0,18.782,18.782,0,0,1,3.041,1.24l0.556-1.29a22.622,22.622,0,0,0-3.3-1.24,5.394,5.394,0,0,0,.043-0.69v-2.45a10.066,10.066,0,0,0,4.326-7.99,3.4,3.4,0,0,0,2.827-3.31,3.441,3.441,0,0,0-2.784-3.35v-1.46h0.086a2.518,2.518,0,0,0,2.055-.95,4.572,4.572,0,0,0,.6-2.75v-6.92a0.689,0.689,0,0,0-.64-0.73H481.471Zm0,1.38h13.32v6.27a3.6,3.6,0,0,1-.342,1.93,0.929,0.929,0,0,1-.942.35H476.289c-0.015.01-.029,0.03-0.043,0.04-0.044.01-.087,0.03-0.128,0.04s-0.058.03-.086,0.05a0.511,0.511,0,0,0-.128.13l-1.885,1.84h-1.841v-5.07a1.422,1.422,0,0,1,.428-0.86,1.589,1.589,0,0,1,.9-0.47h3.641a0.685,0.685,0,0,0,.685-0.64,3.378,3.378,0,0,1,1.028-2.88A4.117,4.117,0,0,1,481.471,1058.37Zm-4.839,9.97H492.05v3.52h-1.456a0.677,0.677,0,0,0-.725-0.64h-4.243a0.491,0.491,0,0,0-.171,0,0.681,0.681,0,0,0-.471.64v0.77h-2.956v-0.77a0.679,0.679,0,0,0-.642-0.64h-4.24a0.389,0.389,0,0,0-.214,0,0.684,0.684,0,0,0-.472.64h-1.5v-1.8Zm-3.084,2.96v3.53A1.822,1.822,0,0,1,473.548,1071.3Zm19.916,0.13a1.878,1.878,0,0,1,1.327,1.72,1.829,1.829,0,0,1-1.327,1.68v-3.4Zm6.895,0.47a0.693,0.693,0,0,0-.514.48l-9.936,24.15a0.675,0.675,0,0,0,.436.86,0.706,0.706,0,0,0,.249.04h2.827a0.692,0.692,0,0,0,.642-0.43l9.894-24.15a0.7,0.7,0,0,0-.377-0.9,0.84,0.84,0,0,0-.223-0.05h-3Zm-22.528.69h2.87v0.04h-0.043v1.38H480.7v1.46h-2.913v-2.23h0.043v-0.65Zm8.523,0h2.827v0.65h0.043v2.23h-2.87v-2.88Zm-11.393.65h1.5v2.87a0.686,0.686,0,0,0,.642.73h4.284a0.677,0.677,0,0,0,.642-0.72v-2.11h2.956v2.1a0.683,0.683,0,0,0,.639.73h4.243a0.686,0.686,0,0,0,.728-0.73v-2.87h1.456v2.49c0,5.24-3.314,8.94-8.523,8.94s-8.566-3.69-8.566-8.94v-2.49Zm26,0.04h1.328l-9.337,22.77h-1.328Zm-21.8,11.82a10.448,10.448,0,0,0,4.368.94,10.156,10.156,0,0,0,4.155-.86v1.72a4.161,4.161,0,0,1-4.2,4.25,4.282,4.282,0,0,1-4.325-4.25v-1.8Z" transform="translate(-465.031 -1057)"/>
</svg>
