<svg xmlns="http://www.w3.org/2000/svg" xmlns:xlink="http://www.w3.org/1999/xlink" width="48" height="27" viewBox="0 0 48 27">
  <defs>
    <style>
      .cls-1 {
        fill: #0084ff;
        fill-rule: evenodd;
        filter: url(#filter);
      }
    </style>
    <filter id="filter" x="980" y="3352" width="48" height="27" filterUnits="userSpaceOnUse">
      <feFlood result="flood"/>
      <feComposite result="composite" operator="in" in2="SourceGraphic"/>
      <feBlend result="blend" in2="SourceGraphic"/>
    </filter>
  </defs>
  <path id="eye" class="cls-1" d="M1027.89,3365.2c-0.1-.13-10.83-13.2-23.9-13.2s-23.789,13.07-23.895,13.2a0.484,0.484,0,0,0,0,.6c0.106,0.13,10.831,13.21,23.895,13.21s23.8-13.08,23.9-13.21A0.481,0.481,0,0,0,1027.89,3365.2Zm-23.9,12.87c-11.547,0-21.277-10.64-22.946-12.57,1.668-1.93,11.391-12.57,22.946-12.57s21.29,10.64,22.95,12.57C1025.28,3367.43,1015.55,3378.07,1003.99,3378.07Zm0-22.35a9.784,9.784,0,1,0,9.52,9.78A9.66,9.66,0,0,0,1003.99,3355.72Zm0,18.63a8.853,8.853,0,1,1,8.61-8.85A8.739,8.739,0,0,1,1003.99,3374.35Zm0-13.04a4.191,4.191,0,1,0,4.08,4.19A4.141,4.141,0,0,0,1003.99,3361.31Zm0,7.45a3.261,3.261,0,1,1,3.17-3.26A3.223,3.223,0,0,1,1003.99,3368.76Z" transform="translate(-980 -3352)"/>
</svg>
