<svg xmlns="http://www.w3.org/2000/svg" width="51" height="41" viewBox="0 0 51 41">
  <defs>
    <style>
      .cls-1 {
        fill: #0084ff;
        fill-rule: evenodd;
      }
    </style>
  </defs>
  <path id="icon-2" class="cls-1" d="M1002.09,1234.4h20.82v1.53h-20.82v-1.53Zm-3.485-4.48h27.785v1.53H998.605v-1.53Zm0-4.48h27.545v1.52H998.605v-1.52Zm28.585,21.72a5.415,5.415,0,0,0,.42-0.8H1038V1215H987v31.36h29.44a4.608,4.608,0,0,0,.42.8,4.571,4.571,0,0,1,.26.45c0.01,0.04.03,0.08,0.04,0.11l-3.89,3.81,3.35,1.19,1.21,3.28,4.19-4.1,4.2,4.1,1.21-3.28,3.35-1.19-3.89-3.81a0.76,0.76,0,0,1,.04-0.11A3.171,3.171,0,0,1,1027.19,1247.16Zm9.25-2.32h-5.41a6.188,6.188,0,0,1,5.41-5.3v5.3Zm0-28.31v5.29a6.178,6.178,0,0,1-5.41-5.29h5.41Zm-42.465,0a6.189,6.189,0,0,1-5.414,5.29v-5.29h5.414Zm-5.414,28.31v-5.3a6.2,6.2,0,0,1,5.414,5.3h-5.414Zm29.9,8.38-0.63-1.69-1.72-.61,1.64-1.61a1.487,1.487,0,0,0,.23.28,3.117,3.117,0,0,0,1.47.68,4.536,4.536,0,0,1,.54.15,3.279,3.279,0,0,1,.47.26c0.12,0.07.24,0.14,0.38,0.21Zm3.56-3.52a1.807,1.807,0,0,1-.75-0.33,4.37,4.37,0,0,0-.68-0.36,5.859,5.859,0,0,0-.76-0.22,2.182,2.182,0,0,1-.75-0.28,1.926,1.926,0,0,1-.29-0.74,4.476,4.476,0,0,0-.23-0.74,6.065,6.065,0,0,0-.36-0.67,1.664,1.664,0,0,1-.34-0.73,1.645,1.645,0,0,1,.34-0.74,6.065,6.065,0,0,0,.36-0.67,4.476,4.476,0,0,0,.23-0.74,1.807,1.807,0,0,1,.29-0.73,1.983,1.983,0,0,1,.75-0.29,5.859,5.859,0,0,0,.76-0.22,4.37,4.37,0,0,0,.68-0.36,1.807,1.807,0,0,1,.75-0.33,1.838,1.838,0,0,1,.76.33,4.37,4.37,0,0,0,.68.36,5.437,5.437,0,0,0,.76.22,1.983,1.983,0,0,1,.75.29,1.681,1.681,0,0,1,.28.73,5.774,5.774,0,0,0,.24.74,4.753,4.753,0,0,0,.36.67,1.762,1.762,0,0,1,.34.74,1.787,1.787,0,0,1-.34.73,4.753,4.753,0,0,0-.36.67,5.774,5.774,0,0,0-.24.74,1.786,1.786,0,0,1-.28.74,2.166,2.166,0,0,1-.76.28,5.73,5.73,0,0,0-.75.22,4.37,4.37,0,0,0-.68.36A1.838,1.838,0,0,1,1022.02,1249.7Zm5.92,1.22-1.73.61-0.62,1.69-2.38-2.33c0.13-.07.26-0.14,0.38-0.21a4.681,4.681,0,0,1,.47-0.26,3.668,3.668,0,0,1,.54-0.15,3.161,3.161,0,0,0,1.47-.68,2.011,2.011,0,0,0,.23-0.28Zm-1.17-7.81a2.889,2.889,0,0,0-.7-1.44,3.044,3.044,0,0,0-1.47-.69,4.058,4.058,0,0,1-.54-0.15,3.279,3.279,0,0,1-.47-0.26,3.09,3.09,0,0,0-1.57-.54,3.053,3.053,0,0,0-1.56.54,3.279,3.279,0,0,1-.47.26,4.536,4.536,0,0,1-.54.15,3.044,3.044,0,0,0-1.47.69,2.808,2.808,0,0,0-.7,1.44,4.242,4.242,0,0,1-.16.53,4.571,4.571,0,0,1-.26.45,5.25,5.25,0,0,0-.4.75H995.547a7.738,7.738,0,0,0-6.986-6.84v-14.64a7.737,7.737,0,0,0,6.986-6.83h33.9a7.743,7.743,0,0,0,6.99,6.83V1238a7.744,7.744,0,0,0-6.99,6.84h-1.87a5.244,5.244,0,0,0-.39-0.75,3.171,3.171,0,0,1-.26-0.45A4.242,4.242,0,0,1,1026.77,1243.11Z" transform="translate(-987 -1215)"/>
</svg>
