<svg xmlns="http://www.w3.org/2000/svg" width="39" height="38" viewBox="0 0 39 38">
  <defs>
    <style>
      .cls-1 {
        fill: #0084ff;
        fill-rule: evenodd;
      }
    </style>
  </defs>
  <path id="icon-4" class="cls-1" d="M1031.22,1621.33h-3.01v-19.36h3.01a0.766,0.766,0,0,0,.39-1.43l-18.73-10.44a0.789,0.789,0,0,0-.76,0l-18.727,10.44a0.763,0.763,0,0,0,.384,1.43h3.015v19.36h-3.015a0.769,0.769,0,0,0-.777.76v5.15a0.769,0.769,0,0,0,.777.76h37.443a0.771,0.771,0,0,0,.78-0.76v-5.15A0.771,0.771,0,0,0,1031.22,1621.33Zm-34.5-20.89h0l15.782-8.8,15.78,8.8H996.718Zm29.932,1.53v19.36h-2.71v-19.36h2.71Zm-4.26,0v19.36h-2.71v-19.36h2.71Zm-4.27,0v19.36h-2.71v-19.36h2.71Zm-4.26,0v19.36h-2.72v-19.36h2.72Zm-4.27,0v19.36h-2.71v-19.36h2.71Zm-4.27,0v19.36h-2.71v-19.36h2.71Zm-4.26,0v19.36h-2.715v-19.36h2.715Zm29.39,24.5h-35.9v-3.61h35.9v3.61Zm-17.95-32.4a2.605,2.605,0,1,0,2.65,2.61A2.633,2.633,0,0,0,1012.5,1594.07Zm0,3.69a1.08,1.08,0,1,1,1.1-1.08A1.093,1.093,0,0,1,1012.5,1597.76Z" transform="translate(-993 -1590)"/>
</svg>
