<svg id="SvgjsSvg1000" xmlns="http://www.w3.org/2000/svg" version="1.1" xmlns:xlink="http://www.w3.org/1999/xlink" xmlns:svgjs="http://svgjs.com/svgjs" width="20" height="19" viewBox="0 0 20 19"><title>Shape 32</title><desc>Created with Avocode.</desc><defs id="SvgjsDefs1001"></defs><path id="SvgjsPath1007" d="M859.894 1940.46C859.894 1940.46 859.183 1939.92 858.746 1940.3600000000001C858.645 1940.46 858.607 1940.5100000000002 858.563 1940.5600000000002C858.941 1938.88 859.797 1937.41 860.972 1936.3000000000002C862.324 1935.0400000000002 864.084 1934.2700000000002 866.021 1934.2700000000002C867.957 1934.2700000000002 869.717 1935.0400000000002 871.069 1936.3000000000002C872.419 1937.5700000000002 873.352 1939.3300000000002 873.617 1941.3300000000002L874.7869999999999 1941.15C874.4789999999999 1938.8500000000001 873.4019999999999 1936.8100000000002 871.8459999999999 1935.3500000000001C870.2929999999999 1933.89 868.2499999999999 1933.0000000000002 866.0209999999998 1933.0000000000002C863.7919999999998 1933.0000000000002 861.7479999999998 1933.8900000000003 860.1949999999998 1935.3500000000001C858.7779999999998 1936.67 857.7629999999998 1938.4800000000002 857.3579999999998 1940.5300000000002C857.3019999999998 1940.4500000000003 857.2639999999998 1940.39 857.1489999999999 1940.2300000000002C856.7819999999999 1939.7200000000003 855.9999999999999 1940.1400000000003 855.9999999999999 1940.1400000000003L857.7769999999999 1942.6300000000003ZM874.214 1942.36L872.109 1944.55C872.109 1944.55 872.8230000000001 1945.08 873.2570000000001 1944.6399999999999C873.3960000000001 1944.4899999999998 873.4200000000001 1944.4599999999998 873.493 1944.37C873.124 1946.08 872.259 1947.58 871.0690000000001 1948.6999999999998C869.7170000000001 1949.9699999999998 867.9570000000001 1950.7299999999998 866.0210000000001 1950.7299999999998C864.0840000000001 1950.7299999999998 862.3240000000001 1949.9699999999998 860.9720000000001 1948.6999999999998C859.623 1947.4399999999998 858.69 1945.6699999999998 858.4240000000001 1943.6799999999998L857.2550000000001 1943.86C857.5620000000001 1946.1599999999999 858.6390000000001 1948.1899999999998 860.1950000000002 1949.6499999999999C861.7510000000002 1951.11 863.7920000000001 1951.9999999999998 866.0210000000002 1951.9999999999998C868.2500000000002 1951.9999999999998 870.2930000000002 1951.1099999999997 871.8460000000002 1949.6499999999999C873.2540000000002 1948.33 874.2670000000003 1946.54 874.6740000000002 1944.5099999999998C874.7190000000002 1944.5699999999997 874.7600000000002 1944.6299999999997 874.8510000000002 1944.7599999999998C875.2240000000003 1945.2599999999998 876.0000000000002 1944.8399999999997 876.0000000000002 1944.8399999999997Z " fill="#ffffff" fill-opacity="1" transform="matrix(1,0,0,1,-856,-1933)"></path></svg>
