<svg xmlns="http://www.w3.org/2000/svg" width="33" height="44" viewBox="0 0 33 44">
  <defs>
    <style>
      .cls-1 {
        fill: #0084ff;
        fill-rule: evenodd;
      }
    </style>
  </defs>
  <path id="icon-1" class="cls-1" d="M323.854,1249.84c0.01-.02.021-0.03,0.03-0.05,0,0,0,0,.007-0.01s0.019-.03.028-0.04,0-.01,0-0.01q0.014-.03.024-0.06h0c0.007-.02.014-0.04,0.02-0.06,0,0,0-.01,0-0.01a0.434,0.434,0,0,0,.014-0.06,0.038,0.038,0,0,0,0-.01c0-.02.006-0.04,0.008-0.06a0.667,0.667,0,0,0,0-.07v-33.7a0.692,0.692,0,0,0-.687-0.7H291.687a0.692,0.692,0,0,0-.687.7v42.6a0.692,0.692,0,0,0,.687.7h22.986a0.092,0.092,0,0,1,.05-0.01h0.017c0.019-.01.038-0.01,0.057-0.02h0.008c0.019-.01.037-0.01,0.055-0.02h0.008l0.05-.03h0.011l0.044-.03a0.17,0.17,0,0,1,.014-0.01l0.038-.03s0.011-.01.016-0.01,0.03-.03.044-0.04,0,0,0-.01l8.709-8.89h0c0.014-.02.028-0.03,0.041-0.05A0.094,0.094,0,0,1,323.854,1249.84Zm-31.479-33.44h30.25v32.3H314.6a0.7,0.7,0,0,0-.687.7v8.2H292.375v-41.2Zm29.278,33.71-6.361,6.49v-6.49h6.361Zm-17.021-26.22h13.181a0.7,0.7,0,0,0,0-1.4H304.632A0.7,0.7,0,0,0,304.632,1223.89Zm-6.1,1.67a0.667,0.667,0,0,0,.972,0l3.667-3.74a0.722,0.722,0,0,0,0-1,0.686,0.686,0,0,0-.973,0l-3.18,3.25-0.889-.91a0.684,0.684,0,0,0-.972,0,0.72,0.72,0,0,0,0,1Zm4.382,4.18a0.7,0.7,0,0,0,.687.71h14.209a0.705,0.705,0,0,0,0-1.41H303.6A0.7,0.7,0,0,0,302.917,1229.74Zm-2.063-2.57h-3.666a0.692,0.692,0,0,0-.688.7v3.75a0.7,0.7,0,0,0,.688.7h3.666a0.7,0.7,0,0,0,.688-0.7v-3.75A0.692,0.692,0,0,0,300.854,1227.17Zm-0.687,3.74h-2.292v-2.34h2.292v2.34Zm17.646,4.69H303.6a0.7,0.7,0,0,0,0,1.4h14.209A0.7,0.7,0,0,0,317.813,1235.6Zm-16.959-1.88h-3.666a0.7,0.7,0,0,0-.688.71v3.74a0.692,0.692,0,0,0,.688.7h3.666a0.692,0.692,0,0,0,.688-0.7v-3.74A0.7,0.7,0,0,0,300.854,1233.72Zm-0.687,3.75h-2.292v-2.34h2.292v2.34Zm17.646,4.68H303.6a0.7,0.7,0,0,0,0,1.4h14.209A0.7,0.7,0,0,0,317.813,1242.15Zm-16.959-1.87h-3.666a0.692,0.692,0,0,0-.688.7v3.74a0.7,0.7,0,0,0,.688.71h3.666a0.7,0.7,0,0,0,.688-0.71v-3.74A0.692,0.692,0,0,0,300.854,1240.28Zm-0.687,3.74h-2.292v-2.34h2.292v2.34Zm11.687,4.68H303.6a0.705,0.705,0,0,0,0,1.41h8.25A0.705,0.705,0,0,0,311.854,1248.7Zm-11-1.87h-3.666a0.692,0.692,0,0,0-.688.7v3.75a0.7,0.7,0,0,0,.688.7h3.666a0.7,0.7,0,0,0,.688-0.7v-3.75A0.692,0.692,0,0,0,300.854,1246.83Zm-0.687,3.74h-2.292v-2.34h2.292v2.34Z" transform="translate(-291 -1215)"/>
</svg>
