<svg xmlns="http://www.w3.org/2000/svg" width="21" height="41" viewBox="0 0 21 41">
  <defs>
    <style>
      .cls-1 {
        fill: #0084ff;
        fill-rule: evenodd;
      }
    </style>
  </defs>
  <path id="icon-6" class="cls-1" d="M1022.29,1964h-19.38a0.828,0.828,0,0,0-.91.69v12.95a0.769,0.769,0,0,0,.29.59l9.4,7.39v3.28l-2.29,4.47-5.39.74a0.8,0.8,0,0,0-.64.52,0.739,0.739,0,0,0,.21.78l3.93,3.61-0.93,5.09a0.731,0.731,0,0,0,.32.74,0.815,0.815,0,0,0,.85.06l4.85-2.4,4.85,2.4a0.808,0.808,0,0,0,.37.09,0.827,0.827,0,0,0,.48-0.15,0.731,0.731,0,0,0,.32-0.74l-0.93-5.09,3.92-3.61a0.739,0.739,0,0,0,.21-0.78,0.815,0.815,0,0,0-.65-0.52l-5.47-.74-2.39-4.47v-3.28l9.4-7.39a0.769,0.769,0,0,0,.29-0.59v-12.95A0.647,0.647,0,0,0,1022.29,1964Zm-14.64,16.46-4.03-3.17v-11.77h4.03v14.94Zm6.84,13.94a0.8,0.8,0,0,0,.61.42l4.21,0.58-3.05,2.81a0.709,0.709,0,0,0-.23.67l0.72,3.97-3.77-1.88a0.942,0.942,0,0,0-.76,0l-3.77,1.88,0.72-3.97a0.709,0.709,0,0,0-.23-0.67l-3.05-2.81,4.22-.58a0.785,0.785,0,0,0,.6-0.42l1.89-3.6Zm-1.89-10.13-3.33-2.57a0.7,0.7,0,0,0,0-.25v-15.93h6.46v15.93a0.771,0.771,0,0,0,.1.25Zm8.78-6.98-4.03,3.17v-14.94h4.03v11.77Z" transform="translate(-1002 -1964)"/>
</svg>
