<svg xmlns="http://www.w3.org/2000/svg" width="45" height="34.03" viewBox="0 0 45 34.03">
  <defs>
    <style>
      .cls-1 {
        fill: #0084ff;
        fill-rule: evenodd;
      }
    </style>
  </defs>
  <path id="icon-5" class="cls-1" d="M329.472,1973.79l-21.545-10.71a0.921,0.921,0,0,0-.854,0l-21.545,10.71a0.948,0.948,0,0,0,0,1.7l6.9,3.43v5.91a3.347,3.347,0,0,0,1.118,2.49,21,21,0,0,0,27.916,0,3.347,3.347,0,0,0,1.118-2.49v-5.91l2.29-1.14v7.39a2.7,2.7,0,0,0-.236,4.97l-1.642,5.65a0.94,0.94,0,0,0,.153.83,0.955,0.955,0,0,0,.764.38h3.833a0.954,0.954,0,0,0,.763-0.38,0.943,0.943,0,0,0,.154-0.83l-1.643-5.65a2.7,2.7,0,0,0-.236-4.97v-8.34l2.7-1.34A0.948,0.948,0,0,0,329.472,1973.79Zm-8.805,11.04a1.426,1.426,0,0,1-.484,1.07,19.066,19.066,0,0,1-25.365,0,1.423,1.423,0,0,1-.485-1.07v-4.96l12.74,6.33a0.962,0.962,0,0,0,.854,0l12.74-6.33v4.96h0Zm4.508,10.27,0.646-2.22,0.646,2.22h-1.292Zm0.646-6.58a0.81,0.81,0,1,1,.812-0.81A0.816,0.816,0,0,1,325.821,1988.52Zm-0.185-13.25-18.052-1.58a0.954,0.954,0,1,0-.168,1.9l14.959,1.3-14.875,7.4-19.41-9.65,19.41-9.65,19.41,9.65Z" transform="translate(-285 -1962.97)"/>
</svg>
