<svg xmlns="http://www.w3.org/2000/svg" width="55" height="22" viewBox="0 0 55 22">
  <defs>
    <style>
      .cls-1 {
        fill: #0084ff;
        fill-rule: evenodd;
      }
    </style>
  </defs>
  <path id="icon-3" class="cls-1" d="M313.947,1604.68c0,4.55-3.521,6.45-7.583,6.31a15.154,15.154,0,0,1-4.376-.92l0.347-3.28a11.841,11.841,0,0,0,4.378,1.11c1.836-.03,3.67-0.89,3.67-3.05,0-1.66-1.311-2.48-2.578-3.13-2.8-1.44-6.024-2.44-6.024-6.47,0-3.81,2.986-5.79,6.687-5.79a13.7,13.7,0,0,1,4.563.81l-0.483,3.23a9.168,9.168,0,0,0-3.965-.95c-1.6,0-3.237.57-3.237,2.44,0,1.46,1.477,2.22,2.575,2.77,2.977,1.51,6.026,2.75,6.026,6.92m-16.711,5.34a19.05,19.05,0,0,1-6.425.97c-6.476,0-10.811-4.24-10.811-10.85,0-6.42,4.6-10.68,10.84-10.68a15.435,15.435,0,0,1,6.154,1.1l-0.281,3.59a9.167,9.167,0,0,0-5.73-1.6c-4.461,0-7.439,3.28-7.418,7.67,0.021,4.74,3.263,7.68,7.275,7.68a12.364,12.364,0,0,0,2.942-.28v-5.4h-3.858v-3.03h7.312v10.83m28.21-21.02,4.919,11.12h-3.427l-1.492-3.7-1.494,3.7h-3.427l4.921-11.12m4.975,11.25L335,1610.63h-3.6l-3.422-8.06,2.441-2.32m-9.952,0,2.441,2.32-1.8,4.18,4.333-2.3,2.494,1.94-8.531,4.24H315.89l4.579-10.38" transform="translate(-280 -1589)"/>
</svg>
