<svg id="SvgjsSvg1000" xmlns="http://www.w3.org/2000/svg" version="1.1" xmlns:xlink="http://www.w3.org/1999/xlink" xmlns:svgjs="http://svgjs.com/svgjs" width="19" height="18" viewBox="0 0 19 18"><title>Forma 1</title><desc>Created with Avocode.</desc><defs id="SvgjsDefs1001"></defs><path id="SvgjsPath1007" d="M36.9962 412.638L34.4668 410.097C34.1271 409.757 33.6723 409.57 33.1862 409.57C32.6804 409.57 32.202799999999996 409.77 31.8417 410.133L30.8571 411.12199999999996C30.092 410.69499999999994 29.0751 410.10699999999997 28.019399999999997 409.04699999999997C26.964899999999997 407.98699999999997 26.3799 406.969 25.952499999999997 406.19599999999997L26.937999999999995 405.207C27.670699999999997 404.469 27.685699999999997 403.286 26.971499999999995 402.569L24.442699999999995 400.029C24.103899999999996 399.688 23.649099999999994 399.5 23.161799999999996 399.5C22.667199999999998 399.5 22.199399999999997 399.691 21.840399999999995 400.039C21.623199999999997 400.215 20.533299999999997 401.181 20.127099999999995 403.175C19.558299999999996 405.964 20.865099999999995 408.649 24.637499999999996 412.439C28.851599999999998 416.67100000000005 32.449099999999994 417 33.45139999999999 417C33.65999999999999 417 33.78589999999999 416.987 33.81949999999999 416.983C35.78489999999999 416.752 36.48849999999999 415.875 37.00229999999999 415.235C37.66809999999999 414.40500000000003 37.66579999999999 413.314 36.99619999999999 412.63800000000003ZM36.1569 414.55C35.6739 415.152 35.2178 415.72 33.6932 415.90000000000003C33.6924 415.90000000000003 33.608999999999995 415.90900000000005 33.4514 415.90900000000005C32.5547 415.90900000000005 29.324199999999998 415.60300000000007 25.4054 411.66800000000006C21.9265 408.1720000000001 20.7055 405.7750000000001 21.1909 403.3930000000001C21.545199999999998 401.6550000000001 22.4859 400.9160000000001 22.522399999999998 400.8880000000001L22.554899999999996 400.8640000000001L22.583299999999998 400.8350000000001C22.740299999999998 400.6780000000001 22.9457 400.59100000000007 23.161699999999996 400.59100000000007C23.358299999999996 400.59100000000007 23.540199999999995 400.6650000000001 23.674199999999995 400.80000000000007L26.203699999999994 403.34100000000007C26.494699999999995 403.63300000000004 26.479199999999995 404.1240000000001 26.169599999999996 404.4360000000001L25.054999999999996 405.5550000000001L25.036699999999996 405.5740000000001C24.746299999999998 405.89500000000015 24.780499999999996 406.3290000000001 24.940499999999997 406.61200000000014C25.402099999999997 407.4490000000001 26.034499999999998 408.59500000000014 27.251299999999997 409.81800000000015C28.4641 411.0360000000002 29.603499999999997 411.67100000000016 30.434299999999997 412.1340000000001C30.5175 412.18100000000015 30.689199999999996 412.2590000000001 30.904099999999996 412.2590000000001C31.157999999999998 412.2590000000001 31.390999999999995 412.1510000000001 31.563499999999998 411.95500000000015L32.6095 410.90400000000017C32.765699999999995 410.7470000000002 32.9704 410.6610000000002 33.186099999999996 410.6610000000002C33.3831 410.6610000000002 33.5659 410.7350000000002 33.69969999999999 410.8690000000002L36.227399999999996 413.4090000000002C36.5485 413.73300000000023 36.41589999999999 414.2270000000002 36.15689999999999 414.55000000000024Z " fill="#ffffff" fill-opacity="1" transform="matrix(1,0,0,1,-19,-399)"></path></svg>