<svg xmlns="http://www.w3.org/2000/svg" width="52" height="52" viewBox="0 0 52 52">
  <defs>
    <style>
      .cls-1 {
        fill: #0084ff;
        fill-rule: evenodd;
      }
    </style>
  </defs>
  <path id="Practice_Exams" class="cls-1" d="M1439,1105a26,26,0,1,0-26-26A26.012,26.012,0,0,0,1439,1105Zm0-50.39a24.39,24.39,0,1,1-24.39,24.39A24.422,24.422,0,0,1,1439,1054.61Zm-7.64,22.57a1,1,0,0,0,.41,1.2l3.43,2.49-1.3,4.06a0.988,0.988,0,0,0,.42,1.19,1.18,1.18,0,0,0,1.3,0l3.43-2.49,3.43,2.49a0.994,0.994,0,0,0,.63.21,0.868,0.868,0,0,0,.62-0.21,1.058,1.058,0,0,0,.37-1.19l-1.3-4.06,3.43-2.49a1.078,1.078,0,0,0-.68-1.93h-4.26l-1.25-4.05a1.062,1.062,0,0,0-1.04-.73,1.129,1.129,0,0,0-1.04.73l-1.3,4.05h-4.26A1.119,1.119,0,0,0,1431.36,1077.18Zm5.66,0.88a1.124,1.124,0,0,0,1.04-.72l0.94-2.86,0.94,2.86a1.057,1.057,0,0,0,1.04.72h2.96l-2.39,1.72a1.068,1.068,0,0,0-.37,1.2l0.94,2.8-2.5-1.66a0.95,0.95,0,0,0-.62-0.21,0.868,0.868,0,0,0-.62.21l-2.4,1.77,0.94-2.81a0.989,0.989,0,0,0-.42-1.2l-2.39-1.71h2.91v-0.11Zm-18.09,6.24a5.076,5.076,0,0,0,3.38,1.25,5.642,5.642,0,0,0,1.61-.26,5.132,5.132,0,0,0,4.73-1.82,5.184,5.184,0,0,0,.94-5.09,0.807,0.807,0,0,0-.63-0.52,5.241,5.241,0,0,0-4.88,1.76,4.63,4.63,0,0,0-.58.84,4.21,4.21,0,0,0-.67-0.73,5.2,5.2,0,0,0-5.1-.94,0.912,0.912,0,0,0-.52.63A5.1,5.1,0,0,0,1418.93,1084.3Zm5.56-1.66a3.6,3.6,0,0,1,.83-1.98,3.555,3.555,0,0,1,2.86-1.24,3.488,3.488,0,0,1-.78,3.01,3.682,3.682,0,0,1-2.91,1.25,0.723,0.723,0,0,0-.52-0.36A0.9,0.9,0,0,0,1424.49,1082.64Zm-2.75-1.72a3.593,3.593,0,0,1,1.14,1.82,0.857,0.857,0,0,0,.62.58,1.024,1.024,0,0,0-.46.46,3.6,3.6,0,0,1-3.07-.78,3.568,3.568,0,0,1-1.25-2.86A3.8,3.8,0,0,1,1421.74,1080.92Zm1.3-3.69a4.449,4.449,0,0,0,1.66.31,4.307,4.307,0,0,0,2.6-.83,4.458,4.458,0,0,0,1.82-4,0.848,0.848,0,0,0-.47-0.68,4.39,4.39,0,0,0-4.37.47,3.685,3.685,0,0,0-.52.42,3.1,3.1,0,0,0-.31-0.52,4.458,4.458,0,0,0-4-1.82,0.838,0.838,0,0,0-.68.46A4.421,4.421,0,0,0,1423.04,1077.23Zm1.14-2.08a3.127,3.127,0,0,1,.99-1.35,3.012,3.012,0,0,1,2.29-.47,2.771,2.771,0,0,1-3.49,2.45l-0.15-.21A0.6,0.6,0,0,0,1424.18,1075.15Zm-4.11-3.01a2.626,2.626,0,0,1,2.03,1.14,2.828,2.828,0,0,1,.52,1.56,0.587,0.587,0,0,0,.21.52l-0.21.16a2.761,2.761,0,0,1-2.08-1.15A2.427,2.427,0,0,1,1420.07,1072.14Zm4.53-2.29a4.438,4.438,0,0,0,3.06,1.19,4.165,4.165,0,0,0,1.1-.15,4.515,4.515,0,0,0,3.17-3.07,0.873,0.873,0,0,0-.21-0.78,4.515,4.515,0,0,0-4.21-1.2,3.88,3.88,0,0,0-.63.21,2.672,2.672,0,0,0-.1-0.62,4.462,4.462,0,0,0-3.07-3.17,0.749,0.749,0,0,0-.78.2,4.51,4.51,0,0,0-1.19,4.22A4.217,4.217,0,0,0,1424.6,1069.85Zm1.87-1.51a2.026,2.026,0,1,1,1.87.99,2.688,2.688,0,0,1-2.34-.47l-0.05-.26A0.83,0.83,0,0,0,1426.47,1068.34Zm-2.76-4.26a2.84,2.84,0,0,1,1.46,1.82,3.009,3.009,0,0,1-.11,1.66,1.1,1.1,0,0,0,0,.57l-0.26.11a2.75,2.75,0,0,1-1.5-1.82A2.821,2.821,0,0,1,1423.71,1064.08Zm3.75,1.24a3.369,3.369,0,0,0,1.45.26,3.83,3.83,0,0,0,2.34-.78,3.951,3.951,0,0,0,1.46-3.48,0.876,0.876,0,0,0-.52-0.68,3.753,3.753,0,0,0-3.75.52,3.827,3.827,0,0,0-1.45,3.49A0.732,0.732,0,0,0,1427.46,1065.32Zm1.97-2.86h0a2.133,2.133,0,0,1,1.67-.41,2.27,2.27,0,0,1-.84,1.51,2.11,2.11,0,0,1-1.66.41A1.959,1.959,0,0,1,1429.43,1062.46Zm0.21,27.2a4.6,4.6,0,0,0-.1-4.42,0.691,0.691,0,0,0-.73-0.36,4.45,4.45,0,0,0-3.75,2.34,3.234,3.234,0,0,0-.26.57c-0.15-.11-0.36-0.26-0.52-0.37a4.506,4.506,0,0,0-4.36.11,0.7,0.7,0,0,0-.37.73,4.391,4.391,0,0,0,2.34,3.74,4.307,4.307,0,0,0,2.08.52,4.639,4.639,0,0,0,2.19-.57A4.381,4.381,0,0,0,1429.64,1089.66Zm-4.68,1.04a2.786,2.786,0,0,1-2.39-.1,2.754,2.754,0,0,1-1.41-1.88,2.641,2.641,0,0,1,2.34.16,2.574,2.574,0,0,1,1.15,1.2,0.7,0.7,0,0,0,.41.36Zm1.51-2.7a2.715,2.715,0,0,1,1.87-1.41,3.035,3.035,0,0,1-.16,2.34,2.7,2.7,0,0,1-1.92,1.41l-0.21-.16a1,1,0,0,0,.16-0.57A2.387,2.387,0,0,1,1426.47,1088Zm4.94,1.82a0.778,0.778,0,0,0-.83,0,4.086,4.086,0,0,0-1.93,3.48,1.507,1.507,0,0,0,.05.47h-0.46a4.047,4.047,0,0,0-3.38,2.03,0.778,0.778,0,0,0,0,.83,3.935,3.935,0,0,0,3.38,1.87h0.1a6.865,6.865,0,0,0,5.1-5.3A3.84,3.84,0,0,0,1431.41,1089.82Zm-3.07,7.22h-0.05a2.558,2.558,0,0,1-1.72-.83,2.367,2.367,0,0,1,1.72-.83,2.513,2.513,0,0,1,1.35.36,0.806,0.806,0,0,0,.47.16v0.16A2.225,2.225,0,0,1,1428.34,1097.04Zm2.7-2.02h-0.1a0.784,0.784,0,0,0-.16-0.47,2.978,2.978,0,0,1-.46-1.35,2.5,2.5,0,0,1,.72-1.77,2.135,2.135,0,0,1,.78,1.71A2.345,2.345,0,0,1,1431.04,1095.02Zm24.18-14.88a4.23,4.23,0,0,0-.72.68,5.262,5.262,0,0,0-5.31-2.86,0.846,0.846,0,0,0-.67.52,5.21,5.21,0,0,0,5.3,7.18,5.566,5.566,0,0,0,1.82.31,5.14,5.14,0,0,0,3.17-1.09,5.352,5.352,0,0,0,2.03-4.79,0.846,0.846,0,0,0-.52-0.67A5.47,5.47,0,0,0,1455.22,1080.14Zm-1.87,3.9a3.57,3.57,0,0,1-3.48-4.47,3.548,3.548,0,0,1,2.81,1.41,3.593,3.593,0,0,1,.72,2.02,0.867,0.867,0,0,0,.47.73A0.819,0.819,0,0,0,1453.35,1084.04Zm5.98-3.22a3.567,3.567,0,0,1-1.4,2.81,3.724,3.724,0,0,1-3.12.62,0.746,0.746,0,0,0-.42-0.47,0.862,0.862,0,0,0,.68-0.57,3.546,3.546,0,0,1,1.25-1.77A3.414,3.414,0,0,1,1459.33,1080.82Zm-4.37-8.06c-0.1.16-.26,0.36-0.36,0.52a3.554,3.554,0,0,0-.47-0.42,4.418,4.418,0,0,0-4.37-.67,0.9,0.9,0,0,0-.52.62,4.587,4.587,0,0,0,1.62,4.11,4.424,4.424,0,0,0,2.75.94,4.991,4.991,0,0,0,1.46-.26,4.461,4.461,0,0,0,4.57-6.04,0.9,0.9,0,0,0-.62-0.52A4.892,4.892,0,0,0,1454.96,1072.76Zm-0.72,3.43a2.865,2.865,0,0,1-2.34-.52,2.958,2.958,0,0,1-1.04-2.08,2.693,2.693,0,0,1,2.23.57,2.986,2.986,0,0,1,.94,1.41,0.859,0.859,0,0,0,.36.47Zm1.4-.83a2.886,2.886,0,0,1,.57-1.56,2.813,2.813,0,0,1,2.08-1.04,2.785,2.785,0,0,1-2.7,3.28l-0.21-.16A0.711,0.711,0,0,0,1455.64,1075.36Zm-4.42-9.2a4.273,4.273,0,0,0-4.26.98,0.879,0.879,0,0,0-.26.78,4.482,4.482,0,0,0,3.01,3.23,5.436,5.436,0,0,0,1.3.21,4.431,4.431,0,0,0,2.86-1.04,4.505,4.505,0,0,0,3.07-2.97,4.277,4.277,0,0,0-.99-4.26,0.907,0.907,0,0,0-.78-0.26,4.486,4.486,0,0,0-3.22,3.01c-0.05.21-.11,0.42-0.16,0.63A1.2,1.2,0,0,0,1451.22,1066.16Zm2.29,0.05a2.7,2.7,0,0,1,1.56-1.72,2.953,2.953,0,0,1,.31,2.29,2.724,2.724,0,0,1-1.61,1.77l-0.26-.11a1.056,1.056,0,0,0,.05-0.57A2.545,2.545,0,0,1,1453.51,1066.21Zm-1.41,2.44a1.083,1.083,0,0,0,.52.31l-0.1.26a2.851,2.851,0,0,1-2.34.37,3.092,3.092,0,0,1-1.77-1.56,2.719,2.719,0,0,1,2.29-.31A2.532,2.532,0,0,1,1452.1,1068.65Zm-4.62-3.79a3.841,3.841,0,0,0,2.49.88,3.423,3.423,0,0,0,1.25-.21,0.877,0.877,0,0,0,.52-0.62,3.889,3.889,0,0,0-1.3-3.59,3.785,3.785,0,0,0-3.74-.68,0.823,0.823,0,0,0-.52.63A3.9,3.9,0,0,0,1447.48,1064.86Zm1.92-2.29a0.946,0.946,0,1,1-.88,1.04,2.267,2.267,0,0,1-.78-1.56A2.422,2.422,0,0,1,1449.4,1062.57Zm8.37,25.58a4.384,4.384,0,0,0-4.37-.31c-0.2.1-.36,0.21-0.57,0.31a4.6,4.6,0,0,0-.21-0.57,4.433,4.433,0,0,0-3.58-2.5,0.78,0.78,0,0,0-.73.37,4.36,4.36,0,0,0-.31,4.37,4.494,4.494,0,0,0,3.43,2.49,4.22,4.22,0,0,0,2.34.68,4.914,4.914,0,0,0,1.92-.42,4.345,4.345,0,0,0,2.5-3.59A0.953,0.953,0,0,0,1457.77,1088.15Zm-6.5,2.45a2.814,2.814,0,0,1-1.92-3.85,2.729,2.729,0,0,1,1.77,1.51,3.029,3.029,0,0,1,.2,1.66,0.7,0.7,0,0,0,.11.57Zm3.69,0.46a2.711,2.711,0,0,1-2.39,0l-0.1-.26a0.816,0.816,0,0,0,.47-0.36,3.087,3.087,0,0,1,1.19-1.14,2.814,2.814,0,0,1,2.34-.06A3.077,3.077,0,0,1,1454.96,1091.06Zm-5.82,2.86h-0.47a1.445,1.445,0,0,0,.05-0.46,4.083,4.083,0,0,0-1.71-3.59,0.781,0.781,0,0,0-.83-0.05,3.953,3.953,0,0,0-.63,6.76,4.094,4.094,0,0,0,3.23,2.08h0.26a3.93,3.93,0,0,0,3.27-1.72,0.781,0.781,0,0,0,.05-0.83A3.851,3.851,0,0,0,1449.14,1093.92Zm-2.55.73a0.618,0.618,0,0,0-.15.42h-0.11a2.276,2.276,0,0,1-.73-1.87,2.359,2.359,0,0,1,.89-1.67,2.422,2.422,0,0,1,.62,1.77A2.379,2.379,0,0,1,1446.59,1094.65Zm2.34,2.39a2.6,2.6,0,0,1-1.77-.93V1096a1.519,1.519,0,0,0,.47-0.1,2.114,2.114,0,0,1,1.35-.31,2.224,2.224,0,0,1,1.67.88A2.4,2.4,0,0,1,1448.93,1097.04Z" transform="translate(-1413 -1053)"/>
</svg>
