<?xml version="1.0" encoding="utf-8"?>
<!-- Generator: Adobe Illustrator 19.2.1, SVG Export Plug-In . SVG Version: 6.00 Build 0)  -->
<svg version="1.1" id="Layer_1" xmlns="http://www.w3.org/2000/svg" xmlns:xlink="http://www.w3.org/1999/xlink" x="0px" y="0px"
	 viewBox="0 0 117.8 145.6" style="enable-background:new 0 0 117.8 145.6;" xml:space="preserve">
<style type="text/css">
	
		.st0{clip-path:url(#SVGID_2_);fill:none;stroke:#fff;stroke-width:3;stroke-linecap:round;stroke-linejoin:round;stroke-miterlimit:10;}
	.st1{clip-path:url(#SVGID_2_);fill:none;stroke:#fff;stroke-width:2;stroke-linecap:round;stroke-linejoin:round;}
	
		.st2{clip-path:url(#SVGID_2_);fill:none;stroke:#fff;stroke-width:2;stroke-linecap:round;stroke-linejoin:round;stroke-dasharray:2.816,2.816;}
	
		.st3{clip-path:url(#SVGID_2_);fill:none;stroke:#fff;stroke-width:2;stroke-linecap:round;stroke-linejoin:round;stroke-dasharray:2.986,2.986;}
	
		.st4{clip-path:url(#SVGID_2_);fill:none;stroke:#fff;stroke-width:2;stroke-linecap:round;stroke-linejoin:round;stroke-dasharray:2.951,2.951;}
</style>
<g>
	<defs>
		<rect id="SVGID_1_" width="117.8" height="145.6"/>
	</defs>
	<clipPath id="SVGID_2_">
		<use xlink:href="#SVGID_1_"  style="overflow:visible;"/>
	</clipPath>
	<path class="st0" d="M96.3,97.6c-18.6,18.6-50.1,17.3-70.3-2.9S4.5,43,23.1,24.4L96.3,97.6z"/>
	<line class="st0" x1="59" y1="59.9" x2="75.9" y2="43"/>
	<circle class="st0" cx="79.3" cy="39.7" r="4.7"/>
	<line class="st0" x1="75.9" y1="43" x2="68.8" y2="69.5"/>
	<line class="st0" x1="75.9" y1="42.9" x2="49.4" y2="50"/>
	<polyline class="st0" points="53,144.1 29.4,99.5 1.5,144.1 	"/>
	<path class="st1" d="M74.6,22.8c0.4-0.4,0.7-0.7,1.1-1"/>
	<path class="st2" d="M78.1,20.2c5.4-2.9,12.3-2,16.9,2.6c4.9,4.9,5.5,12.5,1.8,18.1"/>
	<path class="st1" d="M96,42.1c-0.3,0.4-0.6,0.8-1,1.1"/>
	<path class="st1" d="M68.8,16.7c0.4-0.4,0.7-0.7,1.1-1"/>
	<path class="st3" d="M72.3,13.9c8.9-5.9,21-5,28.8,2.8c8.2,8.2,8.9,21.1,2,30"/>
	<path class="st1" d="M102.1,47.9c-0.3,0.4-0.7,0.7-1,1.1"/>
	<path class="st1" d="M62.2,10.4c0.4-0.4,0.7-0.7,1.1-1"/>
	<path class="st4" d="M65.6,7.5C78.1-2,96-1,107.4,10.4c11.8,11.8,12.4,30.4,2,43"/>
	<path class="st1" d="M108.5,54.5c-0.3,0.4-0.7,0.7-1,1.1"/>
	<line class="st0" x1="11.4" y1="129.7" x2="36.3" y2="113.5"/>
	<line class="st0" x1="45.3" y1="130" x2="20.4" y2="113.8"/>
	<path class="st0" d="M28.9,88c-16.6-16.6-17.7-42.5-2.3-57.8"/>
	<path class="st0" d="M33.2,91.9c-0.5-0.4-1.1-0.9-1.6-1.4"/>
</g>
</svg>
