<svg id="SvgjsSvg1011" xmlns="http://www.w3.org/2000/svg" version="1.1" xmlns:xlink="http://www.w3.org/1999/xlink" xmlns:svgjs="http://svgjs.com/svgjs" width="55" height="22" viewBox="0 0 55 22"><title>Shape 38</title><desc>Created with Avocode.</desc><defs id="SvgjsDefs1012"></defs><path id="SvgjsPath1013" d="M313.947 1604.68C313.947 1609.23 310.426 1611.13 306.364 1610.99C304.92199999999997 1610.95 303.518 1610.58 301.988 1610.07L302.335 1606.79C303.63 1607.34 305.308 1607.92 306.71299999999997 1607.8999999999999C308.549 1607.87 310.383 1607.0099999999998 310.383 1604.85C310.383 1603.1899999999998 309.072 1602.37 307.805 1601.7199999999998C305.003 1600.2799999999997 301.781 1599.2799999999997 301.781 1595.2499999999998C301.781 1591.4399999999998 304.767 1589.4599999999998 308.468 1589.4599999999998C309.81300000000005 1589.4599999999998 311.41900000000004 1589.6899999999998 313.031 1590.2699999999998L312.548 1593.4999999999998C310.79200000000003 1592.7999999999997 310.025 1592.5499999999997 308.583 1592.5499999999997C306.987 1592.5499999999997 305.346 1593.1199999999997 305.346 1594.9899999999998C305.346 1596.4499999999998 306.823 1597.2099999999998 307.921 1597.7599999999998C310.89799999999997 1599.2699999999998 313.947 1600.5099999999998 313.947 1604.6799999999998M297.236 1610.02C295.944 1610.46 293.966 1610.99 290.811 1610.99C284.335 1610.99 280 1606.75 280 1600.14C280 1593.72 284.601 1589.46 290.84 1589.46C293.80199999999996 1589.46 295.123 1589.9 296.99399999999997 1590.56L296.71299999999997 1594.1499999999999C294.98999999999995 1593.0099999999998 293.52399999999994 1592.55 290.98299999999995 1592.55C286.52199999999993 1592.55 283.5439999999999 1595.83 283.56499999999994 1600.22C283.58599999999996 1604.96 286.8279999999999 1607.9 290.8399999999999 1607.9C292.03599999999994 1607.9 293.0519999999999 1607.8100000000002 293.7819999999999 1607.6200000000001V1602.22H289.9239999999999V1599.19H297.23599999999993V1610.02M325.446 1589L330.365 1600.12H326.938L325.44599999999997 1596.4199999999998L323.95199999999994 1600.12H320.5249999999999L325.4459999999999 1589M330.421 1600.25L335 1610.63H331.402L327.97999999999996 1602.5700000000002L330.42099999999994 1600.2500000000002M320.469 1600.25L322.90999999999997 1602.57L321.10699999999997 1606.75L325.44 1604.45L327.934 1606.39L319.403 1610.63H315.89000000000004L320.46900000000005 1600.25 " fill="#0084ff" fill-opacity="1" transform="matrix(1,0,0,1,-280,-1589)"></path></svg>