<svg id="SvgjsSvg1000" xmlns="http://www.w3.org/2000/svg" version="1.1" xmlns:xlink="http://www.w3.org/1999/xlink" xmlns:svgjs="http://svgjs.com/svgjs" width="33" height="44" viewBox="0 0 33 44"><title>Shape 40</title><desc>Created with Avocode.</desc><defs id="SvgjsDefs1001"></defs><path id="SvgjsPath1007" d="M323.854 1249.84C323.864 1249.82 323.875 1249.81 323.88399999999996 1249.79C323.88699999999994 1249.79 323.88899999999995 1249.79 323.89099999999996 1249.78C323.90099999999995 1249.77 323.90999999999997 1249.75 323.919 1249.74C323.91999999999996 1249.73 323.921 1249.73 323.923 1249.73C323.932 1249.71 323.94 1249.69 323.947 1249.67C323.948 1249.67 323.949 1249.67 323.95 1249.67C323.957 1249.65 323.964 1249.63 323.96999999999997 1249.6100000000001C323.97099999999995 1249.6100000000001 323.97099999999995 1249.6000000000001 323.972 1249.6000000000001C323.97799999999995 1249.5800000000002 323.983 1249.5600000000002 323.986 1249.5400000000002C323.988 1249.5400000000002 323.988 1249.5300000000002 323.989 1249.5300000000002C323.99199999999996 1249.5100000000002 323.99499999999995 1249.4900000000002 323.99699999999996 1249.4700000000003C323.99899999999997 1249.4500000000003 323.99999999999994 1249.4300000000003 323.99999999999994 1249.4000000000003V1215.7000000000003C323.99999999999994 1215.3100000000002 323.69199999999995 1215.0000000000002 323.31299999999993 1215.0000000000002H291.68699999999995C291.30799999999994 1215.0000000000002 290.99999999999994 1215.3100000000002 290.99999999999994 1215.7000000000003V1258.3000000000002C290.99999999999994 1258.6900000000003 291.30799999999994 1259.0000000000002 291.68699999999995 1259.0000000000002H314.6039999999999C314.62699999999995 1259.0000000000002 314.6499999999999 1259.0000000000002 314.67299999999994 1259.0000000000002C314.68999999999994 1258.9900000000002 314.70699999999994 1258.9900000000002 314.72299999999996 1258.9900000000002C314.7289999999999 1258.9900000000002 314.734 1258.9900000000002 314.73999999999995 1258.9900000000002C314.75899999999996 1258.9800000000002 314.77799999999996 1258.9800000000002 314.79699999999997 1258.9700000000003C314.79999999999995 1258.9700000000003 314.80199999999996 1258.9700000000003 314.80499999999995 1258.9700000000003C314.82399999999996 1258.9600000000003 314.8419999999999 1258.9600000000003 314.85999999999996 1258.9500000000003C314.86299999999994 1258.9500000000003 314.86499999999995 1258.9500000000003 314.86799999999994 1258.9500000000003C314.88499999999993 1258.9400000000003 314.90199999999993 1258.9300000000003 314.91799999999995 1258.9200000000003C314.92199999999997 1258.9200000000003 314.92499999999995 1258.9200000000003 314.929 1258.9200000000003C314.94399999999996 1258.9100000000003 314.95799999999997 1258.9000000000003 314.97299999999996 1258.8900000000003C314.977 1258.8900000000003 314.98199999999997 1258.8800000000003 314.98699999999997 1258.8800000000003C314.99999999999994 1258.8700000000003 315.013 1258.8600000000004 315.025 1258.8500000000004C315.03 1258.8500000000004 315.036 1258.8400000000004 315.041 1258.8400000000004C315.056 1258.8300000000004 315.07099999999997 1258.8100000000004 315.085 1258.8000000000004C315.087 1258.8000000000004 315.089 1258.8000000000004 315.09 1258.7900000000004L323.799 1249.9000000000003C323.79999999999995 1249.9000000000003 323.801 1249.9000000000003 323.803 1249.9000000000003C323.817 1249.8800000000003 323.831 1249.8700000000003 323.844 1249.8500000000004C323.847 1249.8500000000004 323.84999999999997 1249.8400000000004 323.854 1249.8400000000004ZM292.375 1216.4H322.625V1248.7H314.604C314.22499999999997 1248.7 313.917 1249.02 313.917 1249.4V1257.6000000000001H292.375ZM321.653 1250.11L315.29200000000003 1256.6V1250.11ZM304.632 1223.89H317.813C318.192 1223.89 318.5 1223.5800000000002 318.5 1223.19C318.5 1222.8 318.192 1222.49 317.813 1222.49H304.632C304.252 1222.49 303.945 1222.8 303.945 1223.19C303.945 1223.5800000000002 304.252 1223.89 304.632 1223.89ZM298.535 1225.56C298.66900000000004 1225.7 298.845 1225.77 299.021 1225.77C299.197 1225.77 299.373 1225.7 299.507 1225.56L303.174 1221.82C303.44199999999995 1221.54 303.44199999999995 1221.1 303.174 1220.82C302.905 1220.55 302.46999999999997 1220.55 302.20099999999996 1220.82L299.02099999999996 1224.07L298.13199999999995 1223.1599999999999C297.864 1222.8899999999999 297.42799999999994 1222.8899999999999 297.15999999999997 1223.1599999999999C296.89099999999996 1223.4399999999998 296.89099999999996 1223.8799999999999 297.15999999999997 1224.1599999999999ZM302.917 1229.74C302.917 1230.13 303.224 1230.45 303.604 1230.45H317.813C318.192 1230.45 318.5 1230.13 318.5 1229.74C318.5 1229.36 318.192 1229.04 317.813 1229.04H303.604C303.224 1229.04 302.917 1229.36 302.917 1229.74ZM300.854 1227.17H297.188C296.808 1227.17 296.5 1227.48 296.5 1227.8700000000001V1231.6200000000001C296.5 1232.0000000000002 296.808 1232.3200000000002 297.188 1232.3200000000002H300.854C301.234 1232.3200000000002 301.542 1232.0000000000002 301.542 1231.6200000000001V1227.8700000000001C301.542 1227.48 301.234 1227.17 300.854 1227.17ZM300.167 1230.91H297.875V1228.5700000000002H300.167ZM317.813 1235.6H303.604C303.224 1235.6 302.917 1235.9099999999999 302.917 1236.3C302.917 1236.69 303.224 1237 303.604 1237H317.813C318.192 1237 318.5 1236.69 318.5 1236.3C318.5 1235.9099999999999 318.192 1235.6 317.813 1235.6ZM300.854 1233.72H297.188C296.808 1233.72 296.5 1234.04 296.5 1234.43V1238.17C296.5 1238.5600000000002 296.808 1238.8700000000001 297.188 1238.8700000000001H300.854C301.234 1238.8700000000001 301.542 1238.5600000000002 301.542 1238.17V1234.43C301.542 1234.04 301.234 1233.72 300.854 1233.72ZM300.167 1237.47H297.875V1235.13H300.167ZM317.813 1242.15H303.604C303.224 1242.15 302.917 1242.46 302.917 1242.8500000000001C302.917 1243.2400000000002 303.224 1243.5500000000002 303.604 1243.5500000000002H317.813C318.192 1243.5500000000002 318.5 1243.2400000000002 318.5 1242.8500000000001C318.5 1242.46 318.192 1242.15 317.813 1242.15ZM300.854 1240.28H297.188C296.808 1240.28 296.5 1240.59 296.5 1240.98V1244.72C296.5 1245.1100000000001 296.808 1245.43 297.188 1245.43H300.854C301.234 1245.43 301.542 1245.1100000000001 301.542 1244.72V1240.98C301.542 1240.59 301.234 1240.28 300.854 1240.28ZM300.167 1244.02H297.875V1241.68H300.167ZM311.854 1248.7H303.604C303.224 1248.7 302.917 1249.02 302.917 1249.4C302.917 1249.7900000000002 303.224 1250.1100000000001 303.604 1250.1100000000001H311.854C312.234 1250.1100000000001 312.542 1249.7900000000002 312.542 1249.4C312.542 1249.02 312.234 1248.7 311.854 1248.7ZM300.854 1246.83H297.188C296.808 1246.83 296.5 1247.1399999999999 296.5 1247.53V1251.28C296.5 1251.66 296.808 1251.98 297.188 1251.98H300.854C301.234 1251.98 301.542 1251.66 301.542 1251.28V1247.53C301.542 1247.1399999999999 301.234 1246.83 300.854 1246.83ZM300.167 1250.57H297.875V1248.23H300.167Z " fill="#0084ff" fill-opacity="1" transform="matrix(1,0,0,1,-291,-1215)"></path></svg>