<svg id="SvgjsSvg1008" xmlns="http://www.w3.org/2000/svg" version="1.1" xmlns:xlink="http://www.w3.org/1999/xlink" xmlns:svgjs="http://svgjs.com/svgjs" width="51" height="41" viewBox="0 0 51 41"><title>Shape 39</title><desc>Created with Avocode.</desc><defs id="SvgjsDefs1009"></defs><path id="SvgjsPath1010" d="M1002 1236V1234H1023V1236ZM999 1231V1230H1026V1231ZM999 1227V1225H1026V1227ZM1027.19 1247.16C1027.3300000000002 1246.93 1027.49 1246.66 1027.6100000000001 1246.3600000000001H1038.0000000000002V1215.0000000000002H987.0000000000002V1246.3600000000001H1016.4400000000003C1016.5500000000003 1246.66 1016.7200000000003 1246.93 1016.8600000000002 1247.16C1016.9600000000003 1247.3200000000002 1017.0600000000003 1247.48 1017.1200000000002 1247.6100000000001C1017.1300000000002 1247.65 1017.1500000000002 1247.69 1017.1600000000002 1247.72L1013.2700000000002 1251.53L1016.6200000000002 1252.72L1017.8300000000003 1256L1022.0200000000003 1251.9L1026.2200000000003 1256L1027.4300000000003 1252.72L1030.7800000000002 1251.53L1026.89 1247.72C1026.9 1247.69 1026.91 1247.65 1026.93 1247.6100000000001C1026.99 1247.48 1027.0800000000002 1247.3200000000002 1027.19 1247.16ZM1036.44 1244.84H1031.03C1031.3799999999999 1242.08 1033.62 1239.8899999999999 1036.44 1239.54ZM1036.44 1216.53V1221.82C1033.6200000000001 1221.48 1031.38 1219.28 1031.03 1216.53ZM993.975 1216.53C993.619 1219.28 991.38 1221.48 988.561 1221.82V1216.53ZM988.561 1244.84V1239.54C991.38 1239.8899999999999 993.619 1242.08 993.975 1244.84ZM1018.46 1253.22L1017.83 1251.53L1016.11 1250.92L1017.75 1249.3100000000002C1017.81 1249.41 1017.89 1249.5000000000002 1017.98 1249.5900000000001C1018.41 1250.0100000000002 1018.99 1250.15 1019.45 1250.2700000000002C1019.6500000000001 1250.3200000000002 1019.84 1250.3600000000001 1019.99 1250.4200000000003C1020.13 1250.4800000000002 1020.29 1250.5700000000004 1020.46 1250.6800000000003C1020.58 1250.7500000000002 1020.7 1250.8200000000004 1020.84 1250.8900000000003ZM1022.02 1249.7C1021.8199999999999 1249.7 1021.55 1249.54 1021.27 1249.3700000000001C1021.06 1249.24 1020.84 1249.1100000000001 1020.59 1249.0100000000002C1020.33 1248.9100000000003 1020.08 1248.8500000000001 1019.83 1248.7900000000002C1019.5300000000001 1248.7100000000003 1019.21 1248.63 1019.08 1248.5100000000002C1018.95 1248.38 1018.87 1248.0700000000002 1018.7900000000001 1247.7700000000002C1018.7300000000001 1247.5300000000002 1018.6700000000001 1247.2800000000002 1018.5600000000001 1247.0300000000002C1018.46 1246.7900000000002 1018.32 1246.5700000000002 1018.2 1246.3600000000001C1018.0200000000001 1246.0900000000001 1017.86 1245.8200000000002 1017.86 1245.63C1017.86 1245.43 1018.02 1245.16 1018.2 1244.89C1018.32 1244.68 1018.46 1244.46 1018.5600000000001 1244.22C1018.6700000000001 1243.97 1018.73 1243.72 1018.7900000000001 1243.48C1018.8700000000001 1243.18 1018.95 1242.8700000000001 1019.08 1242.75C1019.21 1242.62 1019.5300000000001 1242.54 1019.83 1242.46C1020.08 1242.4 1020.33 1242.3400000000001 1020.59 1242.24C1020.84 1242.14 1021.0600000000001 1242.01 1021.27 1241.88C1021.55 1241.71 1021.8199999999999 1241.5500000000002 1022.02 1241.5500000000002C1022.23 1241.5500000000002 1022.49 1241.7100000000003 1022.78 1241.88C1022.99 1242.0100000000002 1023.2099999999999 1242.14 1023.4599999999999 1242.24C1023.7099999999999 1242.34 1023.9699999999999 1242.4 1024.22 1242.46C1024.52 1242.54 1024.84 1242.6200000000001 1024.97 1242.75C1025.1000000000001 1242.87 1025.18 1243.18 1025.25 1243.48C1025.32 1243.72 1025.38 1243.97 1025.49 1244.22C1025.59 1244.46 1025.72 1244.68 1025.85 1244.89C1026.02 1245.16 1026.1899999999998 1245.43 1026.1899999999998 1245.63C1026.1899999999998 1245.8200000000002 1026.0199999999998 1246.0900000000001 1025.85 1246.3600000000001C1025.7199999999998 1246.5700000000002 1025.59 1246.7900000000002 1025.49 1247.0300000000002C1025.38 1247.2800000000002 1025.32 1247.5300000000002 1025.25 1247.7700000000002C1025.18 1248.0700000000002 1025.1 1248.38 1024.97 1248.5100000000002C1024.84 1248.63 1024.52 1248.7100000000003 1024.21 1248.7900000000002C1023.97 1248.8500000000001 1023.71 1248.91 1023.46 1249.0100000000002C1023.21 1249.1100000000001 1022.99 1249.2400000000002 1022.7800000000001 1249.3700000000001C1022.4900000000001 1249.5400000000002 1022.2300000000001 1249.7 1022.0200000000001 1249.7ZM1027.94 1250.92L1026.21 1251.53L1025.5900000000001 1253.22L1023.2100000000002 1250.89C1023.3400000000001 1250.8200000000002 1023.4700000000001 1250.75 1023.5900000000001 1250.68C1023.7600000000001 1250.5800000000002 1023.9200000000002 1250.48 1024.0600000000002 1250.42C1024.2000000000003 1250.3600000000001 1024.39 1250.3200000000002 1024.6000000000001 1250.27C1025.0600000000002 1250.15 1025.63 1250.01 1026.0700000000002 1249.59C1026.16 1249.5 1026.2300000000002 1249.4099999999999 1026.3000000000002 1249.31ZM1026.77 1243.11C1026.65 1242.6599999999999 1026.51 1242.09 1026.07 1241.6699999999998C1025.6399999999999 1241.2399999999998 1025.06 1241.1 1024.6 1240.9799999999998C1024.3899999999999 1240.9299999999998 1024.2099999999998 1240.8899999999999 1024.06 1240.8299999999997C1023.92 1240.7699999999998 1023.76 1240.6799999999996 1023.5899999999999 1240.5699999999997C1023.18 1240.3299999999997 1022.66 1240.0299999999997 1022.0199999999999 1240.0299999999997C1021.3799999999999 1240.0299999999997 1020.8699999999999 1240.3299999999997 1020.4599999999999 1240.5699999999997C1020.29 1240.6799999999996 1020.1299999999999 1240.7699999999998 1019.9899999999999 1240.8299999999997C1019.8399999999999 1240.8899999999996 1019.6499999999999 1240.9299999999996 1019.4499999999999 1240.9799999999998C1018.9899999999999 1241.0999999999997 1018.41 1241.2399999999998 1017.9799999999999 1241.6699999999998C1017.5399999999998 1242.09 1017.3899999999999 1242.6599999999999 1017.2799999999999 1243.11C1017.2299999999999 1243.31 1017.1799999999998 1243.49 1017.1199999999999 1243.6399999999999C1017.06 1243.77 1016.9599999999999 1243.9299999999998 1016.8599999999999 1244.09C1016.7299999999999 1244.31 1016.5699999999999 1244.56 1016.4599999999999 1244.84H995.5469999999999C995.1779999999999 1241.23 992.242 1238.36 988.5609999999999 1238V1223.36C992.242 1223 995.1779999999999 1220.1299999999999 995.5469999999999 1216.53H1029.4499999999998C1029.8199999999997 1220.1299999999999 1032.7599999999998 1223 1036.4399999999998 1223.36V1238C1032.7599999999998 1238.36 1029.82 1241.23 1029.4499999999998 1244.84H1027.58C1027.47 1244.56 1027.32 1244.31 1027.1899999999998 1244.09C1027.08 1243.9299999999998 1026.9899999999998 1243.77 1026.9299999999998 1243.6399999999999C1026.87 1243.4899999999998 1026.82 1243.31 1026.7699999999998 1243.11Z " fill="#0084ff" fill-opacity="1" transform="matrix(1,0,0,1,-987,-1215)"></path></svg>