<svg id="SvgjsSvg1020" xmlns="http://www.w3.org/2000/svg" version="1.1" xmlns:xlink="http://www.w3.org/1999/xlink" xmlns:svgjs="http://svgjs.com/svgjs" width="21" height="42" viewBox="0 0 21 42"><title>Shape 43</title><desc>Created with Avocode.</desc><defs id="SvgjsDefs1021"></defs><path id="SvgjsPath1022" d="M1022.29 1964H1002.91C1002.4599999999999 1964 1002 1964.27 1002 1964.69V1977.64C1002 1977.8700000000001 1002.11 1978.0800000000002 1002.29 1978.23L1011.6899999999999 1985.6200000000001V1988.9L1009.4 1993.3700000000001L1004.01 1994.1100000000001C1003.71 1994.15 1003.47 1994.3600000000001 1003.37 1994.63C1003.28 1994.91 1003.36 1995.21 1003.58 1995.41L1007.51 1999.02L1006.58 2004.11C1006.5300000000001 2004.3999999999999 1006.6500000000001 2004.6799999999998 1006.9000000000001 2004.85C1007.1500000000001 2005.03 1007.4800000000001 2005.05 1007.7500000000001 2004.9099999999999L1012.6000000000001 2002.5099999999998L1017.4500000000002 2004.9099999999999C1017.5700000000002 2004.9699999999998 1017.6900000000002 2004.9999999999998 1017.8200000000002 2004.9999999999998C1017.9900000000001 2004.9999999999998 1018.1600000000002 2004.9499999999998 1018.3000000000002 2004.8499999999997C1018.5500000000002 2004.6799999999996 1018.6700000000002 2004.3999999999996 1018.6200000000002 2004.1099999999997L1017.6900000000003 1999.0199999999998L1021.6100000000002 1995.4099999999999C1021.8300000000003 1995.2099999999998 1021.9100000000002 1994.9099999999999 1021.8200000000003 1994.6299999999999C1021.7200000000003 1994.36 1021.4700000000003 1994.1499999999999 1021.1700000000003 1994.11L1015.7000000000003 1993.37L1013.3100000000003 1988.8999999999999V1985.62L1022.7100000000003 1978.2299999999998C1022.8900000000002 1978.0799999999997 1023.0000000000002 1977.87 1023.0000000000002 1977.6399999999999V1964.6899999999998C1023.0000000000002 1964.2699999999998 1022.7400000000002 1963.9999999999998 1022.2900000000002 1963.9999999999998ZM1007.65 1980.46L1003.62 1977.29V1965.52H1007.65ZM1014.49 1994.4C1014.61 1994.63 1014.83 1994.7800000000002 1015.1 1994.8200000000002L1019.3100000000001 1995.4L1016.2600000000001 1998.21C1016.07 1998.38 1015.9800000000001 1998.63 1016.0300000000001 1998.88L1016.7500000000001 2002.8500000000001L1012.9800000000001 2000.97C1012.8600000000001 2000.91 1012.7300000000001 2000.89 1012.6000000000001 2000.89C1012.4700000000001 2000.89 1012.3400000000001 2000.91 1012.2200000000001 2000.97L1008.4500000000002 2002.8500000000001L1009.1700000000002 1998.88C1009.2200000000001 1998.63 1009.1300000000002 1998.38 1008.9400000000002 1998.21L1005.8900000000002 1995.4L1010.1100000000002 1994.8200000000002C1010.3700000000002 1994.7800000000002 1010.6000000000003 1994.63 1010.7100000000003 1994.4L1012.6000000000003 1990.8000000000002ZM1012.6 1984.27L1009.27 1981.7C1009.3 1981.6200000000001 1009.27 1981.54 1009.27 1981.45V1965.52H1015.73V1981.45C1015.73 1981.54 1015.8000000000001 1981.6200000000001 1015.83 1981.7ZM1021.38 1977.29L1017.35 1980.46V1965.52H1021.38Z " fill="#0084ff" fill-opacity="1" transform="matrix(1,0,0,1,-1002,-1964)"></path></svg>