<svg id="SvgjsSvg1017" xmlns="http://www.w3.org/2000/svg" version="1.1" xmlns:xlink="http://www.w3.org/1999/xlink" xmlns:svgjs="http://svgjs.com/svgjs" width="45" height="35" viewBox="0 0 45 35"><title>Shape 44</title><desc>Created with Avocode.</desc><defs id="SvgjsDefs1018"></defs><path id="SvgjsPath1019" d="M329.472 1973.79L307.92699999999996 1963.08C307.65799999999996 1962.9399999999998 307.342 1962.9399999999998 307.073 1963.08L285.52799999999996 1973.79C285.20399999999995 1973.95 284.99999999999994 1974.28 284.99999999999994 1974.6399999999999C284.99999999999994 1974.9999999999998 285.20399999999995 1975.33 285.52799999999996 1975.4899999999998L292.424 1978.9199999999998V1984.83C292.424 1985.78 292.83099999999996 1986.6799999999998 293.542 1987.32C297.381 1990.74 302.33799999999997 1992.6299999999999 307.5 1992.6299999999999C312.662 1992.6299999999999 317.62 1990.7399999999998 321.458 1987.32C322.16900000000004 1986.6799999999998 322.576 1985.78 322.576 1984.83V1978.9199999999998L324.86600000000004 1977.7799999999997V1985.1699999999998C323.83500000000004 1985.56 323.09900000000005 1986.55 323.09900000000005 1987.7099999999998C323.09900000000005 1988.7799999999997 323.725 1989.6999999999998 324.63000000000005 1990.1399999999999L322.98800000000006 1995.79C322.90400000000005 1996.07 322.96100000000007 1996.3799999999999 323.1410000000001 1996.62C323.32200000000006 1996.86 323.6040000000001 1997 323.9050000000001 1997H327.7380000000001C328.0380000000001 1997 328.3200000000001 1996.86 328.5010000000001 1996.62C328.6810000000001 1996.3799999999999 328.7380000000001 1996.07 328.6550000000001 1995.79L327.0120000000001 1990.1399999999999C327.9180000000001 1989.6999999999998 328.5430000000001 1988.78 328.5430000000001 1987.7099999999998C328.5430000000001 1986.5499999999997 327.80700000000013 1985.5599999999997 326.7760000000001 1985.1699999999998V1976.83L329.47200000000015 1975.49C329.79600000000016 1975.33 330.00000000000017 1975 330.00000000000017 1974.64C330.00000000000017 1974.2800000000002 329.79600000000016 1973.95 329.47200000000015 1973.7900000000002ZM320.183 1985.9C316.695 1989.01 312.191 1990.73 307.5 1990.73C302.809 1990.73 298.305 1989.01 294.818 1985.9C294.51 1985.63 294.33299999999997 1985.24 294.33299999999997 1984.8300000000002V1979.8700000000001L307.073 1986.2C307.207 1986.27 307.354 1986.3 307.5 1986.3C307.646 1986.3 307.793 1986.27 307.927 1986.2L320.66700000000003 1979.8700000000001V1984.8300000000002C320.66700000000003 1985.2400000000002 320.49 1985.63 320.18300000000005 1985.9ZM325.175 1995.1L325.821 1992.8799999999999L326.46700000000004 1995.1ZM325.821 1988.52C325.37300000000005 1988.52 325.009 1988.15 325.009 1987.71C325.009 1987.26 325.373 1986.9 325.821 1986.9C326.269 1986.9 326.63300000000004 1987.26 326.63300000000004 1987.71C326.63300000000004 1988.15 326.26900000000006 1988.52 325.821 1988.52ZM325.636 1975.27L307.584 1973.69C307.058 1973.65 306.595 1974.03 306.549 1974.56C306.503 1975.08 306.89099999999996 1975.54 307.416 1975.59L322.375 1976.8899999999999L307.5 1984.29L288.09 1974.6399999999999L307.5 1964.9899999999998L326.91 1974.6399999999999Z " fill="#0084ff" fill-opacity="1" transform="matrix(1,0,0,1,-285,-1962)"></path></svg>