<svg id="SvgjsSvg1014" xmlns="http://www.w3.org/2000/svg" version="1.1" xmlns:xlink="http://www.w3.org/1999/xlink" xmlns:svgjs="http://svgjs.com/svgjs" width="39" height="38" viewBox="0 0 39 38"><title>Shape 41</title><desc>Created with Avocode.</desc><defs id="SvgjsDefs1015"></defs><path id="SvgjsPath1016" d="M1031.22 1621.33H1028.21V1601.97H1031.22C1031.58 1601.97 1031.88 1601.74 1031.97 1601.4C1032.06 1601.0700000000002 1031.91 1600.71 1031.6100000000001 1600.5400000000002L1012.8800000000001 1590.1000000000001C1012.6500000000001 1589.97 1012.3500000000001 1589.97 1012.1200000000001 1590.1000000000001L993.3930000000001 1600.5400000000002C993.0870000000001 1600.7100000000003 992.9360000000001 1601.0700000000002 993.0260000000002 1601.4C993.1160000000002 1601.74 993.4240000000002 1601.97 993.7770000000002 1601.97H996.7920000000001V1621.33H993.7770000000002C993.3480000000002 1621.33 993.0000000000001 1621.6699999999998 993.0000000000001 1622.09V1627.24C993.0000000000001 1627.66 993.3480000000001 1628 993.7770000000002 1628H1031.2200000000003C1031.6500000000003 1628 1032.0000000000002 1627.66 1032.0000000000002 1627.24V1622.09C1032.0000000000002 1621.6699999999998 1031.6500000000003 1621.33 1031.2200000000003 1621.33ZM996.718 1600.44L1012.5 1591.64L1028.28 1600.44ZM1026.65 1601.97V1621.33H1023.94V1601.97ZM1022.39 1601.97V1621.33H1019.68V1601.97ZM1018.12 1601.97V1621.33H1015.41V1601.97ZM1013.86 1601.97V1621.33H1011.14V1601.97ZM1009.59 1601.97V1621.33H1006.88V1601.97ZM1005.32 1601.97V1621.33H1002.61V1601.97ZM1001.06 1601.97V1621.33H998.3449999999999V1601.97ZM1030.45 1626.47H994.5540000000001V1622.8600000000001H1030.45ZM1012.5 1594.07C1011.04 1594.07 1009.85 1595.24 1009.85 1596.6799999999998C1009.85 1598.11 1011.0400000000001 1599.2799999999997 1012.5 1599.2799999999997C1013.96 1599.2799999999997 1015.15 1598.1099999999997 1015.15 1596.6799999999998C1015.15 1595.2399999999998 1013.9599999999999 1594.07 1012.5 1594.07ZM1012.5 1597.76C1011.89 1597.76 1011.4 1597.27 1011.4 1596.68C1011.4 1596.0800000000002 1011.89 1595.6000000000001 1012.5 1595.6000000000001C1013.11 1595.6000000000001 1013.6 1596.0800000000002 1013.6 1596.68C1013.6 1597.27 1013.11 1597.76 1012.5 1597.76Z " fill="#0084ff" fill-opacity="1" transform="matrix(1,0,0,1,-993,-1590)"></path></svg>