<svg xmlns="http://www.w3.org/2000/svg" xmlns:xlink="http://www.w3.org/1999/xlink" width="31" height="43" viewBox="0 0 31 43">
  <defs>
    <style>
      .cls-1 {
        fill: #0084ff;
        fill-rule: evenodd;
        filter: url(#filter);
      }
    </style>
    <filter id="filter" x="989" y="3177" width="31" height="43" filterUnits="userSpaceOnUse">
      <feFlood result="flood"/>
      <feComposite result="composite" operator="in" in2="SourceGraphic"/>
      <feBlend result="blend" in2="SourceGraphic"/>
    </filter>
  </defs>
  <path id="tablet" class="cls-1" d="M1004.5,3183.31a1.635,1.635,0,1,1,1.67-1.64A1.674,1.674,0,0,1,1004.5,3183.31Zm0-2.34a0.7,0.7,0,1,0,.72.7A0.733,0.733,0,0,0,1004.5,3180.97Zm13.4,0.24h-8.63a4.807,4.807,0,0,0-9.539,0H991.1a2.092,2.092,0,0,0-2.1,2.05v34.68a2.1,2.1,0,0,0,2.1,2.06h26.8a2.1,2.1,0,0,0,2.1-2.06v-34.68A2.09,2.09,0,0,0,1017.9,3181.21Zm-23.654,3.03v-0.46a1.75,1.75,0,0,1,1.669-1.64h4.765v-0.47a1.445,1.445,0,0,1,.05-0.46,3.807,3.807,0,0,1,7.54,0c0,0.14.05,0.32,0.05,0.46v0.47h4.76a1.635,1.635,0,0,1,1.58,1.17,1.563,1.563,0,0,1,.09.47v1.63h-20.5v-1.17Zm21.464,0h1.19v32.72H992.1v-32.72h1.192v2.11h22.418v-2.11Zm3.34,33.7a1.151,1.151,0,0,1-1.15,1.12H991.1a1.145,1.145,0,0,1-1.144-1.12v-34.68a1.145,1.145,0,0,1,1.144-1.12h2.767a2.719,2.719,0,0,0-.573,1.17h-1.621a0.521,0.521,0,0,0-.525.51v33.51a0.53,0.53,0,0,0,.525.52h25.609a0.532,0.532,0,0,0,.53-0.52v-33.51a0.523,0.523,0,0,0-.53-0.51h-1.62a2.843,2.843,0,0,0-.57-1.17h2.76a1.151,1.151,0,0,1,1.15,1.12v34.68h0.05Zm-17.6-14.07a0.425,0.425,0,0,1-.34-0.14l-3.049-2.99a0.442,0.442,0,0,1,0-.65,0.463,0.463,0,0,1,.668,0l2.721,2.66,8.77-8.6a0.483,0.483,0,0,1,.67,0,0.453,0.453,0,0,1,0,.66l-9.11,8.97A0.542,0.542,0,0,1,1001.45,3203.87Z" transform="translate(-989 -3177)"/>
</svg>
