<svg xmlns="http://www.w3.org/2000/svg" xmlns:xlink="http://www.w3.org/1999/xlink" width="14" height="14" viewBox="0 0 14 14">
  <path id="update" fill="#7990a0" d="M911.727,1084.07a6.8,6.8,0,0,0-1.783-3.02,6.69,6.69,0,0,0-2.288-1.52,6.945,6.945,0,0,0-2.648-.53v0.86a6.145,6.145,0,0,1,6.007,7.45,6,6,0,0,1-1.362,2.7l-1.194-1.17v2.91l2.977,0.05-1.194-1.19A6.964,6.964,0,0,0,911.727,1084.07Zm-12.642,3.66a6.11,6.11,0,0,1-.1-3.03,6.011,6.011,0,0,1,1.369-2.71l1.194,1.18v-2.92l-2.977-.03,1.187,1.17a6.975,6.975,0,0,0-1.485,6.55,6.8,6.8,0,0,0,1.783,3.01,6.69,6.69,0,0,0,2.288,1.52,6.993,6.993,0,0,0,2.663.53v-0.84A6.185,6.185,0,0,1,899.085,1087.73Z" transform="translate(-898 -1079)"/>
</svg>
